ply
format ascii 1.0
element vertex 140
property float x
property float y
property float z
property uint8 red
property uint8 green
property uint8 blue
end_header
-6.490963 24.886108 -3.783873 39 30 49
-6.637929 25.404654 -3.484079 22 16 26
-4.998852 26.693903 -3.294420 31 33 28
1.310941 29.745564 -2.647734 241 206 254
1.310941 29.745564 -2.647734 241 206 254
-7.101995 27.572458 -2.300489 115 197 19
-7.231528 28.321669 -2.021935 112 200 18
-3.301263 28.081175 1.566183 36 30 42
-2.466994 26.105091 -4.358737 42 36 49
-3.042549 25.898876 -4.304529 48 43 54
-3.734601 25.624371 -4.238110 46 42 55
-0.909438 27.634361 -4.000062 63 59 53
-3.978943 28.455677 -2.748092 196 187 183
-3.946663 27.526976 2.410841 16 13 15
-4.697842 27.291748 2.589859 29 30 28
-1.731036 28.396286 2.240034 19 19 25
-6.828461 27.948406 -2.189531 46 49 54
-4.027266 27.603586 2.153937 11 5 9
-6.699632 25.844965 -3.228424 39 35 42
-3.889377 27.669151 2.130471 79 68 76
-6.371002 24.700535 -4.173559 67 125 14
-3.810279 27.762978 1.999050 31 23 32
-4.621005 26.194431 -3.677773 58 57 65
-3.278732 27.947489 1.912829 54 59 59
-3.870348 28.085468 -2.853796 81 65 74
-2.127668 28.403612 1.853579 15 9 16
-3.171021 22.991299 -0.323760 168 171 188
-2.127668 28.403612 1.853579 15 9 16
-3.171021 22.991299 -0.323760 168 171 188
-3.938354 27.729427 1.902613 20 15 17
0.805030 27.506809 1.091425 101 185 12
-6.380676 25.887501 -3.301821 20 14 26
-6.237453 25.878357 -3.363302 32 27 41
-6.301240 26.158648 -3.199107 81 104 91
-6.301240 26.158648 -3.199107 81 104 91
-4.761115 26.831516 -3.298335 60 54 56
-4.761115 26.831516 -3.298335 60 54 56
-4.153676 26.816065 -3.480432 22 16 23
-4.153676 26.816065 -3.480432 22 16 23
-3.102044 27.366837 -3.464583 17 11 22
0.001884 27.856941 -3.660801 31 23 37
-4.309042 26.528231 -3.573013 58 56 66
-3.872380 26.752535 -3.602713 93 113 87
-3.872380 26.752535 -3.602713 93 113 87
-3.399679 26.969358 -3.601709 25 19 28
-3.484953 27.975878 1.717447 67 76 70
-5.731752 23.335567 1.453890 67 68 81
-3.441751 28.046886 1.591089 30 25 31
-5.731752 23.335567 1.453890 67 68 81
-3.241075 28.115133 1.567937 18 10 22
-2.888794 28.420977 -0.751207 38 40 45
-3.078789 28.137453 1.639987 16 14 21
-2.888794 28.420977 -0.751207 38 40 45
-2.927850 27.092186 -3.680457 27 22 31
-2.424435 28.504656 1.332993 12 7 15
-2.682163 27.200193 -3.699766 32 26 42
-2.380443 28.691925 0.905687 30 35 34
-6.376424 25.350945 -3.613843 38 34 43
-3.662346 25.108578 -1.014016 20 17 25
-4.003078 26.279856 -3.809262 19 17 27
-4.003078 26.279856 -3.809262 19 17 27
-2.881732 26.828535 -3.829038 33 23 35
-4.308733 25.945747 -3.890963 32 16 31
-4.308733 25.945747 -3.890963 32 16 31
-4.200278 26.044121 -3.876693 60 60 80
-4.200278 26.044121 -3.876693 60 60 80
-2.183769 26.669815 -4.132002 32 23 35
-2.183769 26.669815 -4.132002 32 23 35
-3.130311 26.333727 -4.045201 26 17 33
-3.055216 26.499554 -3.960743 20 18 32
-4.155657 25.876158 -3.980752 34 29 36
-4.287639 25.866272 -3.956430 64 73 66
0.183457 29.682564 -2.284744 68 71 80
1.120784 29.671013 -2.628928 59 47 65
-6.641063 26.906942 -2.710521 32 22 44
-4.558650 28.005959 -2.766469 134 141 123
-4.558650 28.005959 -2.766469 134 141 123
-4.215889 28.074509 -2.849399 76 59 69
-4.826952 27.552464 -2.922456 34 26 36
-4.128454 27.800600 -2.995696 47 35 42
-2.828009 28.259069 -3.095093 37 30 40
-4.235437 27.242044 -3.239198 67 63 59
-4.054070 27.509813 -3.144767 32 27 28
-2.874620 27.934624 -3.251373 24 17 31
-6.649847 25.976650 -3.181383 27 18 32
-0.392049 27.372858 -4.298125 70 71 77
0.488646 27.920134 -4.306275 22 13 30
0.488646 27.920134 -4.306275 22 13 30
-3.207717 26.127161 -4.122931 29 18 33
-2.472048 26.269241 -4.224624 29 26 48
-0.599717 27.109961 -4.359032 56 58 60
-0.087798 27.309633 -4.421502 34 27 40
0.323058 27.382858 -4.538784 27 19 35
0.323058 27.382858 -4.538784 27 19 35
1.127144 27.706495 -4.656122 38 30 44
-0.031087 27.110701 -4.554780 31 20 35
0.447353 27.036135 -4.662009 30 21 37
0.481736 27.218014 -4.688351 27 17 33
-1.580990 28.418516 2.269323 20 15 25
-2.332969 28.282797 2.017519 14 14 17
-3.605062 27.883631 1.835882 25 22 22
-3.256093 27.996887 1.786606 16 13 23
-2.089257 28.648932 1.282553 20 13 24
0.831262 30.921926 -1.916958 55 57 61
0.690364 29.638367 -2.461457 46 46 54
-7.162551 27.093201 -2.545605 49 46 74
-3.195886 28.486412 -2.936116 24 15 23
-2.978873 28.518929 -2.938158 70 67 73
-6.912897 26.259455 -2.963739 38 29 53
-6.857512 26.026394 -3.085898 41 39 48
-4.433135 27.119873 -3.243389 36 32 40
-6.787278 25.733513 -3.271817 27 26 33
-3.474279 27.242582 -3.461703 25 18 26
-3.323549 27.197239 -3.510415 20 15 25
-2.546460 27.613621 -3.507792 35 27 46
-0.095554 27.693249 -3.678095 55 51 59
-0.095554 27.693249 -3.678095 55 51 59
-6.239709 25.435797 -3.587327 30 30 46
-3.122769 26.886358 -3.747823 24 20 28
-4.054819 26.078972 -3.904259 31 21 38
-0.454534 27.627319 -4.151258 53 46 56
0.658907 27.734873 -4.464490 24 19 36
-2.872511 28.237785 1.606742 33 43 41
-2.166993 28.534880 1.410821 40 53 54
1.438456 30.589146 -2.315027 253 236 255
0.032618 29.150572 -2.514327 55 56 57
0.353220 28.667463 -2.857951 63 66 70
-4.941443 27.448700 -2.946183 94 99 88
-4.941443 27.448700 -2.946183 94 99 88
-4.372323 27.790617 -2.932101 37 26 34
-4.569939 26.677311 -3.453446 48 43 50
-0.470879 27.790701 -4.054447 123 131 134
-5.014703 27.091131 2.849529 42 43 49
-1.434602 28.518417 2.465300 23 24 22
-1.022285 28.625025 2.422713 22 23 22
-3.536241 27.709049 2.381045 28 26 32
-1.389289 28.531025 2.134294 40 40 45
-2.206857 28.629639 1.623201 16 11 21
-0.606812 29.971582 -2.021122 249 213 255
-7.325963 28.337753 -1.703852 141 175 117
