ply
format ascii 1.0
element vertex 73
property float x
property float y
property float z
property uint8 red
property uint8 green
property uint8 blue
end_header
9.334402 33.105572 -3.528870 255 211 122
10.464899 30.382854 9.140910 160 153 150
2.621673 32.934345 -3.695733 219 141 53
1.332572 33.150311 6.710665 72 51 45
0.801860 31.349024 8.498631 160 112 68
10.798675 30.382517 9.152107 115 71 6
10.698642 31.852846 -4.796388 239 156 58
2.822858 33.212296 -3.414944 241 176 105
1.637386 34.726032 -1.901587 210 160 129
1.711115 31.145897 8.327625 178 119 50
5.054557 30.816118 9.215151 100 61 10
-0.023679 30.292940 10.274460 58 41 35
7.548504 31.796595 -4.925651 245 162 42
3.433196 32.015083 -4.721573 229 151 11
2.068142 32.973278 -3.708557 231 166 108
-1.079114 32.015633 -4.525744 240 204 167
2.506315 32.246910 -4.450862 242 153 19
6.247162 32.309032 -4.408173 242 159 51
0.586268 32.042686 -4.603935 229 169 114
1.429959 32.054161 -4.645714 226 148 50
2.322849 32.015911 -4.679331 243 151 20
2.667810 32.016254 -4.694711 245 168 19
2.913747 32.058838 -4.625115 213 131 16
2.644431 31.945473 -4.793558 142 98 44
6.912128 31.815336 -4.911229 238 166 62
7.953491 31.732904 -4.975132 246 164 53
11.412959 29.689962 9.698921 151 101 4
7.003819 31.149492 9.057184 159 99 4
0.175608 31.970612 9.026000 74 51 30
-0.081753 30.624331 10.067683 60 42 37
2.883432 33.263161 -3.426646 244 178 102
-0.789839 34.605976 -5.944599 140 102 47
2.258670 33.120419 -3.535678 222 149 93
8.927212 31.859348 8.547902 101 60 12
2.514121 34.115070 -2.552564 232 177 126
-0.623494 32.455715 -4.088717 255 254 246
2.931312 34.435577 -2.206407 216 134 50
1.687901 32.477512 -4.200830 233 169 113
1.966862 34.318832 -2.301538 221 176 156
3.747568 33.801205 6.524294 158 100 4
5.391108 35.270451 -1.371207 231 151 13
7.450047 31.266552 8.811759 165 103 3
4.438934 35.069622 -1.552258 226 150 9
10.304359 30.471050 9.333209 157 153 149
4.217539 35.466949 -1.171821 235 151 10
7.436667 33.997265 -2.642749 255 211 118
4.217539 35.466949 -1.171821 235 151 10
5.364488 34.269543 -2.479359 251 182 83
4.921196 31.884737 8.551265 139 88 10
9.310850 32.441090 7.284395 111 68 14
5.855336 30.764441 9.137159 96 58 12
2.046938 32.922783 -3.632266 222 154 100
11.571657 29.693531 9.718875 112 70 5
3.864914 33.282806 -3.361348 240 165 73
10.103376 29.738548 9.812737 156 149 140
4.606519 31.470350 9.102394 139 84 8
8.483156 29.838093 9.852809 136 110 94
1.361048 31.172974 8.902451 87 55 13
5.173385 31.369576 9.034772 148 96 7
6.418698 32.347370 7.959287 121 73 11
6.541840 32.267788 7.937908 127 77 11
8.777620 32.221676 7.254448 117 73 24
5.271383 33.542755 6.805921 113 70 18
0.809495 35.287777 -1.334685 215 163 133
8.566569 33.686848 -3.012889 250 167 70
3.002705 32.970036 -3.715004 216 137 43
-0.833430 31.935350 -4.499068 241 208 180
3.873105 31.979301 -4.766536 240 157 12
-0.069908 30.277424 10.473509 237 221 203
3.686307 30.122988 10.250080 214 140 49
-0.236832 30.872395 9.717595 117 73 9
0.797360 32.084957 -4.581980 234 168 105
1.684019 32.052200 -4.635701 220 142 43
