ply
format ascii 1.0
element vertex 54
property float x
property float y
property float z
property uint8 red
property uint8 green
property uint8 blue
end_header
-3.414697 20.861391 3.483976 64 64 78
-3.980263 20.475912 3.924476 56 53 55
-4.734968 20.753847 4.362503 49 44 36
-6.180882 19.532774 4.908948 255 255 255
-6.736611 20.015738 5.482769 110 46 3
-1.654970 21.542820 -0.118885 137 166 203
-6.978799 20.434496 3.705336 192 195 211
-6.978799 20.434496 3.705336 192 195 211
-6.208560 20.447912 4.554460 38 24 3
-5.871098 20.364285 4.951472 77 77 44
-6.850142 20.162239 5.423947 199 254 255
-6.850142 20.162239 5.423947 199 254 255
-2.090727 21.502321 0.016731 197 210 225
-2.128674 21.494482 0.045271 194 212 227
-6.248447 20.421898 4.626294 253 254 252
-6.248447 20.421898 4.626294 253 254 252
-6.505400 20.258442 5.323199 67 26 2
-5.391346 20.531574 5.227446 69 53 15
-6.019615 20.406549 4.875799 167 235 255
-5.671900 20.489073 5.052294 248 253 248
-6.602353 20.383034 4.297330 249 252 232
-5.916997 20.468237 4.783960 246 247 227
-5.112623 20.681831 4.069025 206 218 213
-4.884237 20.690361 4.036326 66 64 66
-5.054204 20.689899 3.883125 59 57 49
-5.283741 20.715971 4.964608 255 255 255
-5.983837 20.467129 4.835004 105 111 68
-6.481842 20.299246 5.062305 114 45 2
-6.481842 20.299246 5.062305 114 45 2
-6.418778 20.623461 3.972600 255 255 255
-6.418778 20.623461 3.972600 255 255 255
-5.555408 20.986153 4.342433 74 77 79
-5.555408 20.986153 4.342433 74 77 79
-1.600161 21.563042 -0.212621 120 140 171
-1.600161 21.563042 -0.212621 120 140 171
-6.854548 20.224466 5.387542 93 72 55
-6.854548 20.224466 5.387542 93 72 55
-4.180535 19.795332 3.471884 66 70 70
-4.180535 19.795332 3.471884 66 70 70
-5.283741 20.715971 4.964608 255 255 255
-6.135886 20.393282 4.776217 66 62 49
-5.735797 20.462383 5.204971 255 255 255
-1.591131 21.549437 -0.250268 123 150 180
-5.348134 20.580795 5.175605 37 30 13
-1.805712 21.497158 0.363681 206 216 233
-5.348134 20.580795 5.175605 37 30 13
-7.016186 20.171444 5.322162 96 40 3
-7.016186 20.171444 5.322162 96 40 3
-1.962846 21.513073 -0.124169 132 153 170
-3.040671 21.201782 2.103123 163 183 208
-5.362270 20.688200 3.633242 47 44 36
-6.726800 20.432116 4.078412 44 38 14
-6.483562 20.399118 4.792013 90 38 2
-6.076178 20.412868 5.028398 97 32 2
