# https://github.com/mikedh/trimesh
mtllib material.mtl

o pDisc11_lambert1_0
usemtl material_0
v -1.16143000 2.15642405 -0.91201746
v -1.16065931 2.13683391 -0.92398936
v -1.16299391 2.15689731 -0.93493056
v -1.15988851 2.11724424 -0.93596148
v -1.16222322 2.13730693 -0.94690269
v -1.16455781 2.15737057 -0.95784396
v -1.15911782 2.09765434 -0.94793355
v -1.16145253 2.11771727 -0.95887464
v -1.16378713 2.13778043 -0.96981573
v -1.16612172 2.15784359 -0.98075688
v -1.15834713 2.07806468 -0.95990521
v -1.16068172 2.09812737 -0.97084659
v -1.16301644 2.11819077 -0.98178768
v -1.16535103 2.13825369 -0.99272895
v -1.16768563 2.15831685 -1.00366998
v -1.15325475 2.15707803 -0.91256183
v -1.15481865 2.15755153 -0.93547487
v -1.15248406 2.13748837 -0.92453384
v -1.15404797 2.13796139 -0.94744706
v -1.15171325 2.11789870 -0.93650579
v -1.15638256 2.15802479 -0.95838815
v -1.15327728 2.11837149 -0.95941913
v -1.15094256 2.09830880 -0.94847786
v -1.15561199 2.13843489 -0.97036040
v -1.15794659 2.15849757 -0.98130161
v -1.15250659 2.09878159 -0.97139102
v -1.15017200 2.07871890 -0.96044993
v -1.15484118 2.11884499 -0.98233229
v -1.15717590 2.13890791 -0.99327344
v -1.15951049 2.15897107 -1.00421464
v -1.16143000 2.15642405 -0.82767630
v -1.16065931 2.13683414 -0.83964837
v -1.16299391 2.15689731 -0.85058969
v -1.15988851 2.11724424 -0.85162044
v -1.16222322 2.13730693 -0.86256164
v -1.16455781 2.15737057 -0.87350291
v -1.15911782 2.09765458 -0.86359239
v -1.16145253 2.11771727 -0.87453347
v -1.16378713 2.13778067 -0.88547486
v -1.16612172 2.15784359 -0.89641601
v -1.15834713 2.07806492 -0.87556434
v -1.16068172 2.09812760 -0.88650572
v -1.16301644 2.11819077 -0.89744681
v -1.16535103 2.13825369 -0.90838808
v -1.16768575 2.15831685 -0.91932917
v -1.15325475 2.15707803 -0.82822096
v -1.15481865 2.15755177 -0.85113400
v -1.15248406 2.13748860 -0.84019268
v -1.15404797 2.13796163 -0.86310619
v -1.15171337 2.11789870 -0.85216492
v -1.15638268 2.15802479 -0.87404722
v -1.15327728 2.11837173 -0.87507826
v -1.15094268 2.09830880 -0.86413699
v -1.15561199 2.13843489 -0.88601935
v -1.15794659 2.15849781 -0.89696062
v -1.15250659 2.09878159 -0.88705015
v -1.15017200 2.07871890 -0.87610906
v -1.15484118 2.11884499 -0.89799142
v -1.15717590 2.13890815 -0.90893257
v -1.15951049 2.15897131 -0.91987365
v -1.16143000 2.15642405 -0.74314010
v -1.16065931 2.13683414 -0.75511187
v -1.16299391 2.15689731 -0.76605320
v -1.15988851 2.11724448 -0.76708400
v -1.16222322 2.13730717 -0.77802521
v -1.16455781 2.15737057 -0.78896660
v -1.15911782 2.09765458 -0.77905607
v -1.16145253 2.11771727 -0.78999728
v -1.16378713 2.13778043 -0.80093837
v -1.16612172 2.15784359 -0.81187969
v -1.15834713 2.07806468 -0.79102784
v -1.16068172 2.09812760 -0.80196917
v -1.16301644 2.11819077 -0.81291032
v -1.16535103 2.13825369 -0.82385159
v -1.16768563 2.15831685 -0.83479267
v -1.15325475 2.15707803 -0.74368447
v -1.15481865 2.15755153 -0.76659751
v -1.15248406 2.13748837 -0.75565648
v -1.15404797 2.13796139 -0.77856970
v -1.15171337 2.11789870 -0.76762831
v -1.15638268 2.15802479 -0.78951091
v -1.15327728 2.11837149 -0.79054177
v -1.15094268 2.09830880 -0.77960038
v -1.15561199 2.13843489 -0.80148304
v -1.15794659 2.15849781 -0.81242412
v -1.15250659 2.09878159 -0.80251384
v -1.15017200 2.07871890 -0.79157245
v -1.15484118 2.11884499 -0.81345493
v -1.15717590 2.13890791 -0.82439607
v -1.15951049 2.15897131 -0.83533716
v -1.16143000 2.15642405 -0.65527511
v -1.16065931 2.13683391 -0.66724700
v -1.16299391 2.15689731 -0.67818820
v -1.15988851 2.11724424 -0.67921913
v -1.16222322 2.13730693 -0.69016033
v -1.16455781 2.15737057 -0.70110148
v -1.15911782 2.09765434 -0.69119120
v -1.16145241 2.11771703 -0.70213211
v -1.16378713 2.13778043 -0.71307337
v -1.16612172 2.15784359 -0.72401470
v -1.15834713 2.07806468 -0.70316297
v -1.16068172 2.09812737 -0.71410424
v -1.16301644 2.11819077 -0.72504550
v -1.16535103 2.13825369 -0.73598659
v -1.16768563 2.15831685 -0.74692768
v -1.15325475 2.15707803 -0.65581948
v -1.15481865 2.15755153 -0.67873251
v -1.15248406 2.13748837 -0.66779149
v -1.15404797 2.13796139 -0.69070470
v -1.15171337 2.11789870 -0.67976362
v -1.15638268 2.15802479 -0.70164591
v -1.15327728 2.11837149 -0.70267677
v -1.15094256 2.09830880 -0.69173551
v -1.15561199 2.13843489 -0.71361804
v -1.15794659 2.15849781 -0.72455913
v -1.15250647 2.09878159 -0.71464866
v -1.15017200 2.07871890 -0.70370758
v -1.15484118 2.11884499 -0.72558993
v -1.15717590 2.13890791 -0.73653120
v -1.15951049 2.15897107 -0.74747223
v -1.16143000 2.15642405 -0.56565040
v -1.16065931 2.13683414 -0.57762229
v -1.16299391 2.15689731 -0.58856356
v -1.15988851 2.11724448 -0.58959448
v -1.16222322 2.13730693 -0.60053551
v -1.16455781 2.15737033 -0.61147690
v -1.15911782 2.09765434 -0.60156637
v -1.16145253 2.11771727 -0.61250746
v -1.16378713 2.13778043 -0.62344855
v -1.16612172 2.15784335 -0.63439000
v -1.15834713 2.07806468 -0.61353832
v -1.16068184 2.09812760 -0.62447959
v -1.16301644 2.11819077 -0.63542068
v -1.16535103 2.13825369 -0.64636195
v -1.16768575 2.15831685 -0.65730304
v -1.15325475 2.15707803 -0.56619483
v -1.15481865 2.15755153 -0.58910799
v -1.15248406 2.13748837 -0.57816660
v -1.15404797 2.13796163 -0.60108006
v -1.15171337 2.11789870 -0.59013879
v -1.15638268 2.15802455 -0.61202121
v -1.15327728 2.11837149 -0.61305195
v -1.15094268 2.09830880 -0.60211086
v -1.15561199 2.13843489 -0.62399346
v -1.15794659 2.15849757 -0.63493443
v -1.15250659 2.09878159 -0.62502402
v -1.15017200 2.07871890 -0.61408293
v -1.15484118 2.11884475 -0.63596535
v -1.15717590 2.13890791 -0.64690655
v -1.15951049 2.15897107 -0.65784758
v -1.16143000 2.15642381 -0.21091917
v -1.16065931 2.13683391 -0.22289115
v -1.16299391 2.15689731 -0.23383240
v -1.15988851 2.11724424 -0.23486330
v -1.16222322 2.13730693 -0.24580450
v -1.16455781 2.15737057 -0.25674564
v -1.15911782 2.09765434 -0.24683537
v -1.16145253 2.11771727 -0.25777638
v -1.16378713 2.13778043 -0.26871753
v -1.16612172 2.15784359 -0.27965888
v -1.15834713 2.07806468 -0.25880724
v -1.16068172 2.09812737 -0.26974845
v -1.16301644 2.11819077 -0.28068969
v -1.16535103 2.13825369 -0.29163077
v -1.16768575 2.15831685 -0.30257201
v -1.15325475 2.15707803 -0.21146376
v -1.15481865 2.15755153 -0.23437679
v -1.15248406 2.13748837 -0.22343564
v -1.15404797 2.13796163 -0.24634898
v -1.15171337 2.11789870 -0.23540770
v -1.15638268 2.15802479 -0.25729012
v -1.15327728 2.11837149 -0.25832096
v -1.15094256 2.09830880 -0.24737969
v -1.15561199 2.13843489 -0.26926219
v -1.15794659 2.15849781 -0.28020331
v -1.15250659 2.09878159 -0.27029294
v -1.15017200 2.07871890 -0.25935176
v -1.15484118 2.11884499 -0.28123409
v -1.15717590 2.13890791 -0.29217538
v -1.15951049 2.15897107 -0.30311662
v -1.16143000 2.15642381 -0.30284622
v -1.16065931 2.13683391 -0.31481829
v -1.16299391 2.15689707 -0.32575938
v -1.15988851 2.11724424 -0.32679027
v -1.16222322 2.13730693 -0.33773166
v -1.16455781 2.15737057 -0.34867278
v -1.15911782 2.09765434 -0.33876234
v -1.16145253 2.11771703 -0.34970343
v -1.16378713 2.13778043 -0.36064467
v -1.16612172 2.15784359 -0.37158585
v -1.15834713 2.07806468 -0.35073432
v -1.16068172 2.09812737 -0.36167559
v -1.16301644 2.11819077 -0.37261665
v -1.16535103 2.13825369 -0.38355792
v -1.16768575 2.15831685 -0.39449900
v -1.15325475 2.15707803 -0.30339083
v -1.15481865 2.15755153 -0.32630384
v -1.15248406 2.13748837 -0.31536278
v -1.15404797 2.13796139 -0.33827603
v -1.15171337 2.11789870 -0.32733476
v -1.15638256 2.15802479 -0.34921709
v -1.15327728 2.11837149 -0.35024810
v -1.15094256 2.09830880 -0.33930683
v -1.15561187 2.13843489 -0.36118916
v -1.15794659 2.15849781 -0.37213045
v -1.15250659 2.09878159 -0.36221999
v -1.15017200 2.07871890 -0.35127890
v -1.15484118 2.11884499 -0.37316123
v -1.15717590 2.13890791 -0.38410240
v -1.15951049 2.15897107 -0.39504358
v -1.16143000 2.15642405 -0.39296091
v -1.16065931 2.13683414 -0.40493298
v -1.16299391 2.15689754 -0.41587421
v -1.15988851 2.11724448 -0.41690511
v -1.16222322 2.13730717 -0.42784631
v -1.16455781 2.15737057 -0.43878755
v -1.15911782 2.09765458 -0.42887717
v -1.16145253 2.11771727 -0.43981829
v -1.16378713 2.13778043 -0.45075944
v -1.16612172 2.15784359 -0.46170080
v -1.15834713 2.07806468 -0.44084898
v -1.16068172 2.09812760 -0.45179024
v -1.16301644 2.11819100 -0.46273133
v -1.16535103 2.13825369 -0.47367269
v -1.16768575 2.15831685 -0.48461393
v -1.15325475 2.15707827 -0.39350548
v -1.15481865 2.15755153 -0.41641861
v -1.15248406 2.13748860 -0.40547743
v -1.15404797 2.13796163 -0.42839068
v -1.15171337 2.11789894 -0.41744959
v -1.15638268 2.15802479 -0.43933204
v -1.15327728 2.11837173 -0.44036278
v -1.15094268 2.09830880 -0.42942148
v -1.15561199 2.13843489 -0.45130411
v -1.15794659 2.15849781 -0.46224523
v -1.15250659 2.09878182 -0.45233485
v -1.15017200 2.07871890 -0.44139355
v -1.15484118 2.11884499 -0.46327600
v -1.15717590 2.13890791 -0.47421718
v -1.15951049 2.15897131 -0.48515823
v -1.16143000 2.15642405 -0.47812000
v -1.16065931 2.13683414 -0.49009207
v -1.16299391 2.15689754 -0.50103325
v -1.15988851 2.11724448 -0.50206417
v -1.16222322 2.13730717 -0.51300538
v -1.16455781 2.15737057 -0.52394676
v -1.15911782 2.09765458 -0.51403624
v -1.16145253 2.11771727 -0.52497733
v -1.16378713 2.13778067 -0.53591841
v -1.16612172 2.15784359 -0.54685968
v -1.15834713 2.07806468 -0.52600801
v -1.16068172 2.09812760 -0.53694934
v -1.16301644 2.11819100 -0.54789037
v -1.16535103 2.13825369 -0.55883163
v -1.16768563 2.15831685 -0.56977284
v -1.15325475 2.15707827 -0.47866458
v -1.15481865 2.15755177 -0.50157756
v -1.15248406 2.13748860 -0.49063656
v -1.15404797 2.13796139 -0.51354986
v -1.15171337 2.11789870 -0.50260848
v -1.15638256 2.15802479 -0.52449095
v -1.15327728 2.11837149 -0.52552193
v -1.15094268 2.09830880 -0.51458055
v -1.15561199 2.13843489 -0.53646314
v -1.15794659 2.15849781 -0.54740429
v -1.15250659 2.09878182 -0.53749371
v -1.15017200 2.07871890 -0.52655262
v -1.15484118 2.11884499 -0.54843509
v -1.15717590 2.13890791 -0.55937624
v -1.15951049 2.15897131 -0.57031733
v -0.98502135 3.38434553 0.23780523
v -0.97155821 3.34434891 0.23780523
v -1.10455453 3.32184601 0.23780523
v -1.01018524 3.41822457 0.23780523
v -1.04458666 3.44266915 0.23780523
v -1.08485806 3.45528674 0.23780523
v -1.12705755 3.45484209 0.23780523
v -1.16705430 3.44137907 0.23780523
v -1.20093322 3.41621518 0.23780523
v -1.22537780 3.38181376 0.23780523
v -1.23799539 3.34154224 0.23780523
v -1.23755085 3.29934287 0.23780523
v -1.22408772 3.25934625 0.23780523
v -1.19892383 3.22546721 0.23780523
v -1.16452253 3.20102262 0.23780523
v -1.12425101 3.18840504 0.23780523
v -1.08205152 3.18884969 0.23780523
v -1.04205489 3.20231271 0.23780523
v -1.00817597 3.22747660 0.23780523
v -0.98373139 3.26187801 0.23780523
v -0.97111380 3.30214930 0.23780523
v -0.97155821 3.34434891 0.50757837
v -0.98502135 3.38434553 0.50757837
v -1.10455453 3.32184601 0.50757837
v -1.01018524 3.41822457 0.50757837
v -1.04458666 3.44266915 0.50757837
v -1.08485806 3.45528674 0.50757837
v -1.12705755 3.45484209 0.50757837
v -1.16705430 3.44137907 0.50757837
v -1.20093322 3.41621518 0.50757837
v -1.22537780 3.38181376 0.50757837
v -1.23799539 3.34154224 0.50757837
v -1.23755085 3.29934287 0.50757837
v -1.22408772 3.25934625 0.50757837
v -1.19892383 3.22546721 0.50757837
v -1.16452253 3.20102262 0.50757837
v -1.12425101 3.18840504 0.50757837
v -1.08205152 3.18884969 0.50757837
v -1.04205489 3.20231271 0.50757837
v -1.00817597 3.22747660 0.50757837
v -0.98373139 3.26187801 0.50757837
v -0.97111380 3.30214930 0.50757837
v -1.14092231 2.77715707 0.34104449
v -1.13335669 2.77604032 0.35605383
v -1.18401420 2.78351760 0.37269181
v -1.15270615 2.77889633 0.32913300
v -1.16755462 2.78108811 0.32148537
v -1.18401420 2.78351760 0.31885019
v -1.20047379 2.78594708 0.32148537
v -1.21532226 2.78813887 0.32913303
v -1.22710609 2.78987813 0.34104449
v -1.23467171 2.79099488 0.35605383
v -1.23727870 2.79137969 0.37269181
v -1.23467171 2.79099488 0.38932979
v -1.22710609 2.78987813 0.40433910
v -1.21532226 2.78813887 0.41625059
v -1.20047379 2.78594708 0.42389822
v -1.18401420 2.78351760 0.42653340
v -1.16755462 2.78108811 0.42389822
v -1.15270615 2.77889633 0.41625059
v -1.14092231 2.77715707 0.40433910
v -1.13335669 2.77604032 0.38932979
v -1.13074970 2.77565551 0.37269181
v -1.02852762 3.48624277 0.35605383
v -1.03609324 3.48735952 0.34104449
v -1.07918525 3.49372005 0.37269181
v -1.04787707 3.48909879 0.32913300
v -1.06272554 3.49129033 0.32148537
v -1.07918525 3.49372005 0.31885019
v -1.09564483 3.49614954 0.32148537
v -1.11049330 3.49834108 0.32913303
v -1.12227702 3.50008059 0.34104449
v -1.12984276 3.50119734 0.35605383
v -1.13244963 3.50158215 0.37269181
v -1.12984276 3.50119734 0.38932979
v -1.12227702 3.50008059 0.40433910
v -1.11049330 3.49834108 0.41625059
v -1.09564483 3.49614954 0.42389822
v -1.07918525 3.49372005 0.42653340
v -1.06272554 3.49129057 0.42389822
v -1.04787707 3.48909879 0.41625059
v -1.03609335 3.48735952 0.40433910
v -1.02852762 3.48624277 0.38932979
v -1.02592075 3.48585796 0.37269181
v -1.15325475 2.15707803 -0.91256183
v -1.15248406 2.13748837 -0.92453384
v -1.16065931 2.13683391 -0.92398936
v -1.16143000 2.15642405 -0.91201746
v -1.15481865 2.15755153 -0.93547487
v -1.15325475 2.15707803 -0.91256183
v -1.16143000 2.15642405 -0.91201746
v -1.16299391 2.15689731 -0.93493056
v -1.15171325 2.11789870 -0.93650579
v -1.15988851 2.11724424 -0.93596148
v -1.15638256 2.15802479 -0.95838815
v -1.16455781 2.15737057 -0.95784396
v -1.15094256 2.09830880 -0.94847786
v -1.15911782 2.09765434 -0.94793355
v -1.15794659 2.15849757 -0.98130161
v -1.16612172 2.15784359 -0.98075688
v -1.15017200 2.07871890 -0.96044993
v -1.15834713 2.07806468 -0.95990521
v -1.15017200 2.07871890 -0.96044993
v -1.15250659 2.09878159 -0.97139102
v -1.16068172 2.09812737 -0.97084659
v -1.15834713 2.07806468 -0.95990521
v -1.15484118 2.11884499 -0.98233229
v -1.16301644 2.11819077 -0.98178768
v -1.15717590 2.13890791 -0.99327344
v -1.16535103 2.13825369 -0.99272895
v -1.15951049 2.15897107 -1.00421464
v -1.16768563 2.15831685 -1.00366998
v -1.15951049 2.15897107 -1.00421464
v -1.16768563 2.15831685 -1.00366998
v -1.15325475 2.15707803 -0.82822096
v -1.15248406 2.13748860 -0.84019268
v -1.16065931 2.13683414 -0.83964837
v -1.16143000 2.15642405 -0.82767630
v -1.15481865 2.15755177 -0.85113400
v -1.15325475 2.15707803 -0.82822096
v -1.16143000 2.15642405 -0.82767630
v -1.16299391 2.15689731 -0.85058969
v -1.15171337 2.11789870 -0.85216492
v -1.15988851 2.11724424 -0.85162044
v -1.15638268 2.15802479 -0.87404722
v -1.16455781 2.15737057 -0.87350291
v -1.15094268 2.09830880 -0.86413699
v -1.15911782 2.09765458 -0.86359239
v -1.15794659 2.15849781 -0.89696062
v -1.16612172 2.15784359 -0.89641601
v -1.15017200 2.07871890 -0.87610906
v -1.15834713 2.07806492 -0.87556434
v -1.15017200 2.07871890 -0.87610906
v -1.15250659 2.09878159 -0.88705015
v -1.16068172 2.09812760 -0.88650572
v -1.15834713 2.07806492 -0.87556434
v -1.15484118 2.11884499 -0.89799142
v -1.16301644 2.11819077 -0.89744681
v -1.15717590 2.13890815 -0.90893257
v -1.16535103 2.13825369 -0.90838808
v -1.15951049 2.15897131 -0.91987365
v -1.16768575 2.15831685 -0.91932917
v -1.15951049 2.15897131 -0.91987365
v -1.16768575 2.15831685 -0.91932917
v -1.15325475 2.15707803 -0.74368447
v -1.15248406 2.13748837 -0.75565648
v -1.16065931 2.13683414 -0.75511187
v -1.16143000 2.15642405 -0.74314010
v -1.15481865 2.15755153 -0.76659751
v -1.15325475 2.15707803 -0.74368447
v -1.16143000 2.15642405 -0.74314010
v -1.16299391 2.15689731 -0.76605320
v -1.15171337 2.11789870 -0.76762831
v -1.15988851 2.11724448 -0.76708400
v -1.15638268 2.15802479 -0.78951091
v -1.16455781 2.15737057 -0.78896660
v -1.15094268 2.09830880 -0.77960038
v -1.15911782 2.09765458 -0.77905607
v -1.15794659 2.15849781 -0.81242412
v -1.16612172 2.15784359 -0.81187969
v -1.15017200 2.07871890 -0.79157245
v -1.15834713 2.07806468 -0.79102784
v -1.15017200 2.07871890 -0.79157245
v -1.15250659 2.09878159 -0.80251384
v -1.16068172 2.09812760 -0.80196917
v -1.15834713 2.07806468 -0.79102784
v -1.15484118 2.11884499 -0.81345493
v -1.16301644 2.11819077 -0.81291032
v -1.15717590 2.13890791 -0.82439607
v -1.16535103 2.13825369 -0.82385159
v -1.15951049 2.15897131 -0.83533716
v -1.16768563 2.15831685 -0.83479267
v -1.15951049 2.15897131 -0.83533716
v -1.16768563 2.15831685 -0.83479267
v -1.15325475 2.15707803 -0.65581948
v -1.15248406 2.13748837 -0.66779149
v -1.16065931 2.13683391 -0.66724700
v -1.16143000 2.15642405 -0.65527511
v -1.15481865 2.15755153 -0.67873251
v -1.15325475 2.15707803 -0.65581948
v -1.16143000 2.15642405 -0.65527511
v -1.16299391 2.15689731 -0.67818820
v -1.15171337 2.11789870 -0.67976362
v -1.15988851 2.11724424 -0.67921913
v -1.15638268 2.15802479 -0.70164591
v -1.16455781 2.15737057 -0.70110148
v -1.15094256 2.09830880 -0.69173551
v -1.15911782 2.09765434 -0.69119120
v -1.15794659 2.15849781 -0.72455913
v -1.16612172 2.15784359 -0.72401470
v -1.15017200 2.07871890 -0.70370758
v -1.15834713 2.07806468 -0.70316297
v -1.15017200 2.07871890 -0.70370758
v -1.15250647 2.09878159 -0.71464866
v -1.16068172 2.09812737 -0.71410424
v -1.15834713 2.07806468 -0.70316297
v -1.15484118 2.11884499 -0.72558993
v -1.16301644 2.11819077 -0.72504550
v -1.15717590 2.13890791 -0.73653120
v -1.16535103 2.13825369 -0.73598659
v -1.15951049 2.15897107 -0.74747223
v -1.16768563 2.15831685 -0.74692768
v -1.15951049 2.15897107 -0.74747223
v -1.16768563 2.15831685 -0.74692768
v -1.15325475 2.15707803 -0.56619483
v -1.15248406 2.13748837 -0.57816660
v -1.16065931 2.13683414 -0.57762229
v -1.16143000 2.15642405 -0.56565040
v -1.15481865 2.15755153 -0.58910799
v -1.15325475 2.15707803 -0.56619483
v -1.16143000 2.15642405 -0.56565040
v -1.16299391 2.15689731 -0.58856356
v -1.15171337 2.11789870 -0.59013879
v -1.15988851 2.11724448 -0.58959448
v -1.15638268 2.15802455 -0.61202121
v -1.16455781 2.15737033 -0.61147690
v -1.15094268 2.09830880 -0.60211086
v -1.15911782 2.09765434 -0.60156637
v -1.15794659 2.15849757 -0.63493443
v -1.16612172 2.15784335 -0.63439000
v -1.15017200 2.07871890 -0.61408293
v -1.15834713 2.07806468 -0.61353832
v -1.15017200 2.07871890 -0.61408293
v -1.15250659 2.09878159 -0.62502402
v -1.16068184 2.09812760 -0.62447959
v -1.15834713 2.07806468 -0.61353832
v -1.15484118 2.11884475 -0.63596535
v -1.16301644 2.11819077 -0.63542068
v -1.15717590 2.13890791 -0.64690655
v -1.16535103 2.13825369 -0.64636195
v -1.15951049 2.15897107 -0.65784758
v -1.16768575 2.15831685 -0.65730304
v -1.15951049 2.15897107 -0.65784758
v -1.16768575 2.15831685 -0.65730304
v -1.15325475 2.15707803 -0.21146376
v -1.15248406 2.13748837 -0.22343564
v -1.16065931 2.13683391 -0.22289115
v -1.16143000 2.15642381 -0.21091917
v -1.15481865 2.15755153 -0.23437679
v -1.15325475 2.15707803 -0.21146376
v -1.16143000 2.15642381 -0.21091917
v -1.16299391 2.15689731 -0.23383240
v -1.15171337 2.11789870 -0.23540770
v -1.15988851 2.11724424 -0.23486330
v -1.15638268 2.15802479 -0.25729012
v -1.16455781 2.15737057 -0.25674564
v -1.15094256 2.09830880 -0.24737969
v -1.15911782 2.09765434 -0.24683537
v -1.15794659 2.15849781 -0.28020331
v -1.16612172 2.15784359 -0.27965888
v -1.15017200 2.07871890 -0.25935176
v -1.15834713 2.07806468 -0.25880724
v -1.15017200 2.07871890 -0.25935176
v -1.15250659 2.09878159 -0.27029294
v -1.16068172 2.09812737 -0.26974845
v -1.15834713 2.07806468 -0.25880724
v -1.15484118 2.11884499 -0.28123409
v -1.16301644 2.11819077 -0.28068969
v -1.15717590 2.13890791 -0.29217538
v -1.16535103 2.13825369 -0.29163077
v -1.15951049 2.15897107 -0.30311662
v -1.16768575 2.15831685 -0.30257201
v -1.15951049 2.15897107 -0.30311662
v -1.16768575 2.15831685 -0.30257201
v -1.15325475 2.15707803 -0.30339083
v -1.15248406 2.13748837 -0.31536278
v -1.16065931 2.13683391 -0.31481829
v -1.16143000 2.15642381 -0.30284622
v -1.15481865 2.15755153 -0.32630384
v -1.15325475 2.15707803 -0.30339083
v -1.16143000 2.15642381 -0.30284622
v -1.16299391 2.15689707 -0.32575938
v -1.15171337 2.11789870 -0.32733476
v -1.15988851 2.11724424 -0.32679027
v -1.15638256 2.15802479 -0.34921709
v -1.16455781 2.15737057 -0.34867278
v -1.15094256 2.09830880 -0.33930683
v -1.15911782 2.09765434 -0.33876234
v -1.15794659 2.15849781 -0.37213045
v -1.16612172 2.15784359 -0.37158585
v -1.15017200 2.07871890 -0.35127890
v -1.15834713 2.07806468 -0.35073432
v -1.15017200 2.07871890 -0.35127890
v -1.15250659 2.09878159 -0.36221999
v -1.16068172 2.09812737 -0.36167559
v -1.15834713 2.07806468 -0.35073432
v -1.15484118 2.11884499 -0.37316123
v -1.16301644 2.11819077 -0.37261665
v -1.15717590 2.13890791 -0.38410240
v -1.16535103 2.13825369 -0.38355792
v -1.15951049 2.15897107 -0.39504358
v -1.16768575 2.15831685 -0.39449900
v -1.15951049 2.15897107 -0.39504358
v -1.16768575 2.15831685 -0.39449900
v -1.15325475 2.15707827 -0.39350548
v -1.15248406 2.13748860 -0.40547743
v -1.16065931 2.13683414 -0.40493298
v -1.16143000 2.15642405 -0.39296091
v -1.15481865 2.15755153 -0.41641861
v -1.15325475 2.15707827 -0.39350548
v -1.16143000 2.15642405 -0.39296091
v -1.16299391 2.15689754 -0.41587421
v -1.15171337 2.11789894 -0.41744959
v -1.15988851 2.11724448 -0.41690511
v -1.15638268 2.15802479 -0.43933204
v -1.16455781 2.15737057 -0.43878755
v -1.15094268 2.09830880 -0.42942148
v -1.15911782 2.09765458 -0.42887717
v -1.15794659 2.15849781 -0.46224523
v -1.16612172 2.15784359 -0.46170080
v -1.15017200 2.07871890 -0.44139355
v -1.15834713 2.07806468 -0.44084898
v -1.15017200 2.07871890 -0.44139355
v -1.15250659 2.09878182 -0.45233485
v -1.16068172 2.09812760 -0.45179024
v -1.15834713 2.07806468 -0.44084898
v -1.15484118 2.11884499 -0.46327600
v -1.16301644 2.11819100 -0.46273133
v -1.15717590 2.13890791 -0.47421718
v -1.16535103 2.13825369 -0.47367269
v -1.15951049 2.15897131 -0.48515823
v -1.16768575 2.15831685 -0.48461393
v -1.15951049 2.15897131 -0.48515823
v -1.16768575 2.15831685 -0.48461393
v -1.15325475 2.15707827 -0.47866458
v -1.15248406 2.13748860 -0.49063656
v -1.16065931 2.13683414 -0.49009207
v -1.16143000 2.15642405 -0.47812000
v -1.15481865 2.15755177 -0.50157756
v -1.15325475 2.15707827 -0.47866458
v -1.16143000 2.15642405 -0.47812000
v -1.16299391 2.15689754 -0.50103325
v -1.15171337 2.11789870 -0.50260848
v -1.15988851 2.11724448 -0.50206417
v -1.15638256 2.15802479 -0.52449095
v -1.16455781 2.15737057 -0.52394676
v -1.15094268 2.09830880 -0.51458055
v -1.15911782 2.09765458 -0.51403624
v -1.15794659 2.15849781 -0.54740429
v -1.16612172 2.15784359 -0.54685968
v -1.15017200 2.07871890 -0.52655262
v -1.15834713 2.07806468 -0.52600801
v -1.15017200 2.07871890 -0.52655262
v -1.15250659 2.09878182 -0.53749371
v -1.16068172 2.09812760 -0.53694934
v -1.15834713 2.07806468 -0.52600801
v -1.15484118 2.11884499 -0.54843509
v -1.16301644 2.11819100 -0.54789037
v -1.15717590 2.13890791 -0.55937624
v -1.16535103 2.13825369 -0.55883163
v -1.15951049 2.15897131 -0.57031733
v -1.16768563 2.15831685 -0.56977284
v -1.15951049 2.15897131 -0.57031733
v -1.16768563 2.15831685 -0.56977284
v -1.20606077 2.24601865 0.37033591
v -1.12300217 2.24601865 0.37033591
v -1.12300217 2.31068635 0.37033591
v -1.20606077 2.31068635 0.37033591
v -1.20606077 2.47850633 0.17558789
v -1.12300217 2.47850633 0.17558789
v -1.14367354 2.47850633 -0.16957933
v -1.18538940 2.47850633 -0.16957933
v -1.17818773 2.15516615 -0.16957933
v -1.15087521 2.15516615 -0.16957933
v -1.12300217 2.15516615 0.17558789
v -1.20606077 2.15516615 0.17558789
v -1.12300217 2.41383862 0.17558789
v -1.14367354 2.41383862 -0.16957933
v -1.14367354 2.47850633 -0.16957933
v -1.12300217 2.47850633 0.17558789
v -1.18538940 2.41383862 -0.16957933
v -1.20606077 2.41383862 0.17558789
v -1.20606077 2.47850633 0.17558789
v -1.18538940 2.47850633 -0.16957933
v -1.20606077 2.20690060 0.17558789
v -1.12300217 2.20690060 0.17558789
v -1.12300217 2.41383862 0.17558789
v -1.20606077 2.41383862 0.17558789
v -1.12300217 2.20690060 0.17558789
v -1.14367354 2.20690060 -0.16957933
v -1.18538940 2.20690060 -0.16957933
v -1.20606077 2.20690060 0.17558789
v -1.20606077 2.19492745 0.37006721
v -1.12300217 2.19492745 0.37006721
v -1.12300217 2.24666190 0.37006721
v -1.20606077 2.24666190 0.37006721
v -1.12300217 2.15516615 0.17558789
v -1.15087521 2.15516615 -0.16957933
v -1.17818773 2.15516615 -0.16957933
v -1.20606077 2.15516615 0.17558789
v -1.20606077 2.41383862 0.17558789
v -1.12300217 2.41383862 0.17558789
v -1.12300217 2.24601865 0.37033591
v -1.20606077 2.24601865 0.37033591
v -1.12300217 2.31068635 0.37033591
v -1.12300217 2.24601865 0.37033591
v -1.20606077 2.31068635 0.37033591
v -1.12300217 2.31068635 0.37033591
v -1.20606077 2.24601865 0.37033591
v -1.20606077 2.31068635 0.37033591
v -1.12300217 2.19492745 0.37006721
v -1.20606077 2.19492745 0.37006721
v -1.12300217 2.15516615 0.17558789
v -1.12300217 2.20690060 0.17558789
v -1.12300217 2.24666190 0.37006721
v -1.12300217 2.19492745 0.37006721
v -1.12300217 2.20690060 0.17558789
v -1.20606077 2.20690060 0.17558789
v -1.20606077 2.24666190 0.37006721
v -1.12300217 2.24666190 0.37006721
v -1.20606077 2.20690060 0.17558789
v -1.20606077 2.15516615 0.17558789
v -1.20606077 2.19492745 0.37006721
v -1.20606077 2.24666190 0.37006721
v -1.14939833 2.47850633 -0.34697640
v -1.17966449 2.47850633 -0.34697640
v -1.17443955 2.15516615 -1.00335968
v -1.15462339 2.15516615 -1.00335968
v -1.28311849 2.90197349 -1.03143024
v -1.13320041 2.90197349 -1.03143024
v -1.13320041 3.23419619 -1.03143024
v -1.28311849 3.23419619 -1.03143024
v -1.28311849 3.23419619 -1.03143024
v -1.13320041 3.23419619 -1.03143024
v -1.13320041 3.23419619 -1.17689919
v -1.28311849 3.23419619 -1.17689919
v -1.28311849 3.23419619 -1.17689919
v -1.13320041 3.23419619 -1.17689919
v -1.13320041 2.90197349 -1.17689919
v -1.28311849 2.90197349 -1.17689919
v -1.25264323 2.42859411 -1.27214742
v -1.16367567 2.42859411 -1.27214742
v -1.16367567 2.42859411 -0.93618202
v -1.25264323 2.42859411 -0.93618202
v -1.13320041 2.90197349 -1.03143024
v -1.13320041 2.90197349 -1.17689919
v -1.13320041 3.23419619 -1.17689919
v -1.13320041 3.23419619 -1.03143024
v -1.28311849 2.90197349 -1.17689919
v -1.28311849 2.90197349 -1.03143024
v -1.28311849 3.23419619 -1.03143024
v -1.28311849 3.23419619 -1.17689919
v -1.13320041 2.76979852 -1.21935153
v -1.28311849 2.76979852 -1.21935153
v -1.13320041 2.76979852 -0.98897785
v -1.13320041 2.76979852 -1.21935153
v -1.28311849 2.76979852 -0.98897785
v -1.13320041 2.76979852 -0.98897785
v -1.28311849 2.76979852 -1.21935153
v -1.28311849 2.76979852 -0.98897785
v -1.28311849 2.76979852 -1.21935153
v -1.13320041 2.76979852 -1.21935153
v -1.13320041 2.74112725 -1.20604861
v -1.28311849 2.74112725 -1.20604861
v -1.13320041 2.74112725 -1.00228083
v -1.13320041 2.74112725 -1.20604861
v -1.13320041 2.76979852 -0.98897785
v -1.28311849 2.76979852 -0.98897785
v -1.28311849 2.74112725 -1.00228083
v -1.13320041 2.74112725 -1.00228083
v -1.28311849 2.74112725 -1.20604861
v -1.28311849 2.74112725 -1.00228083
v -1.28311849 2.74112725 -1.20604861
v -1.13320041 2.74112725 -1.20604861
v -1.13320041 2.62730575 -1.27214742
v -1.28311849 2.62730575 -1.27214742
v -1.13320041 2.62730575 -0.93618202
v -1.13320041 2.62730575 -1.27214742
v -1.13320041 2.74112725 -1.00228083
v -1.28311849 2.74112725 -1.00228083
v -1.28311849 2.62730575 -0.93618202
v -1.13320041 2.62730575 -0.93618202
v -1.28311849 2.62730575 -1.27214742
v -1.28311849 2.62730575 -0.93618202
v -1.28311849 2.62730575 -1.27214742
v -1.13320041 2.62730575 -1.27214742
v -1.16367567 2.42859411 -1.27214742
v -1.25264323 2.42859411 -1.27214742
v -1.16367567 2.42859411 -0.93618202
v -1.16367567 2.42859411 -1.27214742
v -1.13320041 2.62730575 -0.93618202
v -1.28311849 2.62730575 -0.93618202
v -1.25264323 2.42859411 -0.93618202
v -1.16367567 2.42859411 -0.93618202
v -1.25264323 2.42859411 -1.27214742
v -1.25264323 2.42859411 -0.93618202
v -0.97155821 3.34434891 0.23780523
v -0.98502135 3.38434553 0.23780523
v -0.98502135 3.38434553 0.50757837
v -0.97155821 3.34434891 0.50757837
v -1.01018524 3.41822457 0.23780523
v -1.01018524 3.41822457 0.50757837
v -1.04458666 3.44266915 0.23780523
v -1.04458666 3.44266915 0.50757837
v -1.04458666 3.44266915 0.23780523
v -1.08485806 3.45528674 0.23780523
v -1.08485806 3.45528674 0.50757837
v -1.04458666 3.44266915 0.50757837
v -1.12705755 3.45484209 0.23780523
v -1.12705755 3.45484209 0.50757837
v -1.16705430 3.44137907 0.23780523
v -1.16705430 3.44137907 0.50757837
v -1.16705430 3.44137907 0.23780523
v -1.20093322 3.41621518 0.23780523
v -1.20093322 3.41621518 0.50757837
v -1.16705430 3.44137907 0.50757837
v -1.22537780 3.38181376 0.23780523
v -1.22537780 3.38181376 0.50757837
v -1.23799539 3.34154224 0.23780523
v -1.23799539 3.34154224 0.50757837
v -1.23755085 3.29934287 0.23780523
v -1.23755085 3.29934287 0.50757837
v -1.22408772 3.25934625 0.23780523
v -1.22408772 3.25934625 0.50757837
v -1.19892383 3.22546721 0.23780523
v -1.19892383 3.22546721 0.50757837
v -1.16452253 3.20102262 0.23780523
v -1.16452253 3.20102262 0.50757837
v -1.16452253 3.20102262 0.23780523
v -1.12425101 3.18840504 0.23780523
v -1.12425101 3.18840504 0.50757837
v -1.16452253 3.20102262 0.50757837
v -1.08205152 3.18884969 0.23780523
v -1.08205152 3.18884969 0.50757837
v -1.04205489 3.20231271 0.23780523
v -1.04205489 3.20231271 0.50757837
v -1.04205489 3.20231271 0.23780523
v -1.00817597 3.22747660 0.23780523
v -1.00817597 3.22747660 0.50757837
v -1.04205489 3.20231271 0.50757837
v -0.98373139 3.26187801 0.23780523
v -0.98373139 3.26187801 0.50757837
v -0.97111380 3.30214930 0.23780523
v -0.97111380 3.30214930 0.50757837
v -1.13335669 2.77604032 0.35605383
v -1.14092231 2.77715707 0.34104449
v -1.03609324 3.48735952 0.34104449
v -1.02852762 3.48624277 0.35605383
v -1.15270615 2.77889633 0.32913300
v -1.04787707 3.48909879 0.32913300
v -1.15270615 2.77889633 0.32913300
v -1.16755462 2.78108811 0.32148537
v -1.06272554 3.49129033 0.32148537
v -1.04787707 3.48909879 0.32913300
v -1.18401420 2.78351760 0.31885019
v -1.07918525 3.49372005 0.31885019
v -1.20047379 2.78594708 0.32148537
v -1.09564483 3.49614954 0.32148537
v -1.21532226 2.78813887 0.32913303
v -1.11049330 3.49834108 0.32913303
v -1.21532226 2.78813887 0.32913303
v -1.22710609 2.78987813 0.34104449
v -1.12227702 3.50008059 0.34104449
v -1.11049330 3.49834108 0.32913303
v -1.23467171 2.79099488 0.35605383
v -1.12984276 3.50119734 0.35605383
v -1.23727870 2.79137969 0.37269181
v -1.13244963 3.50158215 0.37269181
v -1.23467171 2.79099488 0.38932979
v -1.12984276 3.50119734 0.38932979
v -1.22710609 2.78987813 0.40433910
v -1.12227702 3.50008059 0.40433910
v -1.21532226 2.78813887 0.41625059
v -1.11049330 3.49834108 0.41625059
v -1.21532226 2.78813887 0.41625059
v -1.20047379 2.78594708 0.42389822
v -1.09564483 3.49614954 0.42389822
v -1.11049330 3.49834108 0.41625059
v -1.18401420 2.78351760 0.42653340
v -1.07918525 3.49372005 0.42653340
v -1.16755462 2.78108811 0.42389822
v -1.06272554 3.49129057 0.42389822
v -1.15270615 2.77889633 0.41625059
v -1.04787707 3.48909879 0.41625059
v -1.15270615 2.77889633 0.41625059
v -1.14092231 2.77715707 0.40433910
v -1.03609335 3.48735952 0.40433910
v -1.04787707 3.48909879 0.41625059
v -1.13335669 2.77604032 0.38932979
v -1.02852762 3.48624277 0.38932979
v -1.13074970 2.77565551 0.37269181
v -1.02592075 3.48585796 0.37269181
v 0.60028267 0.78757048 0.89495456
v 0.60028267 0.67191720 0.89495456
v 0.81360477 0.39815795 0.89495456
v 0.81360477 0.78757048 0.89495456
v 0.81360477 0.78757048 -1.46484315
v 0.60028249 0.78757048 -1.46484327
v 0.60028267 0.78757048 0.63563609
v 0.81360477 0.78757048 0.63563609
v 0.60028267 0.67191720 -1.69822967
v 0.60028267 0.78757048 -1.69822967
v 0.81360477 0.78757048 -1.69822967
v 0.81360477 0.39815795 -1.69822967
v 0.60028267 0.67191720 0.63563585
v 0.60028267 0.67191720 -1.46484327
v 0.81360477 0.67191720 -1.46484327
v 0.81360477 0.67191720 0.63563609
v 0.81360477 0.78757048 0.63563609
v 0.81360477 0.67191720 0.63563609
v 0.81360477 0.67191720 -1.46484327
v 0.81360477 0.78757048 -1.46484315
v -1.31961536 0.78757048 -1.46484315
v -1.31961536 0.67191720 -1.46484327
v -1.31961536 0.67191720 0.63563609
v -1.31961536 0.78757048 0.63563609
v 0.60028267 1.62449813 0.63563609
v 0.60028267 1.62449813 0.89495456
v 0.81360477 1.62449813 0.89495456
v 0.81360477 1.62449813 0.63563609
v 0.81360477 0.39815795 0.89495456
v 0.81360477 0.78757048 0.89495456
v 0.60028267 0.05152631 0.89495456
v 0.60028267 0.05152631 0.63563585
v 0.81360477 0.05152631 0.63563609
v 0.81360477 0.05152631 0.89495456
v -1.31961536 0.39815795 0.89495456
v -1.31961536 0.78757048 0.89495456
v -1.12762570 0.67191720 0.89495456
v -1.12762570 0.67191720 0.63563585
v 0.60028267 0.67191720 0.89495456
v -1.12762570 0.67191720 -1.46484327
v -1.12762570 0.67191720 -1.69822967
v -1.12762570 0.78757048 -1.69822967
v -1.12762570 0.78757048 -1.46484327
v -1.12762570 0.78757048 0.63563585
v -1.12762570 0.78757048 0.89495456
v 0.60028267 0.78757048 0.89495456
v -1.12762570 0.78757048 0.89495456
v -1.12762570 0.67191720 0.89495456
v -1.31961536 0.05152595 0.63563609
v -1.12762570 0.05152595 0.63563585
v -1.12762570 0.05152595 0.89495456
v -1.31961536 0.05152595 0.89495456
v -1.31961536 0.67191720 -1.46484327
v -1.31961536 0.67191720 0.63563609
v -1.31961536 0.78757048 -1.69822967
v -1.31961536 0.39815795 -1.69822967
v -1.31961536 0.78757048 0.63563609
v -1.31961536 0.78757048 -1.46484315
v -1.31961536 1.62449837 0.89495456
v -1.12762570 1.62449837 0.89495456
v -1.12762570 1.62449837 0.63563585
v -1.31961536 1.62449837 0.63563609
v -1.31961536 0.39815795 0.89495456
v -1.31961536 0.78757048 0.89495456
v -1.31961536 0.05152631 -1.69822967
v -1.12762570 0.05152631 -1.69822967
v -1.12762570 0.05152631 -1.46484327
v -1.31961536 0.05152631 -1.46484327
v -1.12762570 0.67191720 -1.69822967
v 0.60028267 0.67191720 -1.69822967
v 0.81360477 0.05152631 -1.46484327
v 0.60028267 0.05152631 -1.46484327
v 0.60028267 0.05152631 -1.69822967
v 0.81360477 0.05152631 -1.69822967
v 0.81360477 0.39815795 -1.69822967
v 0.81360477 0.78757048 -1.69822967
v 0.60028267 1.62449813 -1.69822967
v 0.60028249 1.62449813 -1.46484327
v 0.81360477 1.62449813 -1.46484315
v 0.81360477 1.62449813 -1.69822967
v -1.12762570 0.78757048 -1.69822967
v 0.60028267 0.78757048 -1.69822967
v -1.31961536 1.62449813 -1.46484315
v -1.12762570 1.62449813 -1.46484327
v -1.12762570 1.62449813 -1.69822967
v -1.31961536 1.62449813 -1.69822967
v -1.31961536 0.39815795 -1.69822967
v -1.31961536 0.78757048 -1.69822967
v 0.60028267 0.67191720 0.89495456
v 0.60028267 0.67191720 0.63563585
v 0.60028267 0.05152631 0.63563585
v 0.60028267 0.05152631 0.89495456
v 0.60028267 0.67191720 0.63563585
v 0.81360477 0.67191720 0.63563609
v 0.81360477 0.05152631 0.63563609
v 0.60028267 0.05152631 0.63563585
v 0.81360477 0.05152631 0.89495456
v 0.81360477 0.05152631 0.63563609
v 0.60028267 0.05152631 0.89495456
v 0.81360477 0.05152631 0.89495456
v -1.31961536 0.67191720 0.63563609
v -1.12762570 0.67191720 0.63563585
v -1.12762570 0.05152595 0.63563585
v -1.31961536 0.05152595 0.63563609
v -1.12762570 0.67191720 0.63563585
v -1.12762570 0.67191720 0.89495456
v -1.12762570 0.05152595 0.89495456
v -1.12762570 0.05152595 0.63563585
v -1.31961536 0.05152595 0.89495456
v -1.12762570 0.05152595 0.89495456
v -1.31961536 0.05152595 0.63563609
v -1.31961536 0.05152595 0.89495456
v -1.12762570 0.05152631 -1.69822967
v -1.31961536 0.05152631 -1.69822967
v -1.12762570 0.67191720 -1.69822967
v -1.12762570 0.67191720 -1.46484327
v -1.12762570 0.05152631 -1.46484327
v -1.12762570 0.05152631 -1.69822967
v -1.12762570 0.67191720 -1.46484327
v -1.31961536 0.67191720 -1.46484327
v -1.31961536 0.05152631 -1.46484327
v -1.12762570 0.05152631 -1.46484327
v -1.31961536 0.05152631 -1.69822967
v -1.31961536 0.05152631 -1.46484327
v 0.81360477 0.67191720 -1.46484327
v 0.60028267 0.67191720 -1.46484327
v 0.60028267 0.05152631 -1.46484327
v 0.81360477 0.05152631 -1.46484327
v 0.60028267 0.67191720 -1.46484327
v 0.60028267 0.67191720 -1.69822967
v 0.60028267 0.05152631 -1.69822967
v 0.60028267 0.05152631 -1.46484327
v 0.81360477 0.05152631 -1.69822967
v 0.60028267 0.05152631 -1.69822967
v 0.81360477 0.05152631 -1.46484327
v 0.81360477 0.05152631 -1.69822967
v 0.60028267 0.78757048 0.63563609
v 0.60028267 0.78757048 0.89495456
v 0.60028267 1.62449813 0.89495456
v 0.60028267 1.62449813 0.63563609
v 0.81360477 1.62449813 0.89495456
v 0.60028267 1.62449813 0.89495456
v 0.81360477 1.62449813 0.63563609
v 0.81360477 1.62449813 0.89495456
v 0.81360477 0.78757048 0.63563609
v 0.60028267 0.78757048 0.63563609
v 0.60028267 1.62449813 0.63563609
v 0.81360477 1.62449813 0.63563609
v -1.12762570 1.62449837 0.89495456
v -1.31961536 1.62449837 0.89495456
v -1.12762570 0.78757048 0.89495456
v -1.12762570 0.78757048 0.63563585
v -1.12762570 1.62449837 0.63563585
v -1.12762570 1.62449837 0.89495456
v -1.12762570 0.78757048 0.63563585
v -1.31961536 0.78757048 0.63563609
v -1.31961536 1.62449837 0.63563609
v -1.12762570 1.62449837 0.63563585
v -1.31961536 1.62449837 0.89495456
v -1.31961536 1.62449837 0.63563609
v 0.60028267 0.78757048 -1.69822967
v 0.60028249 0.78757048 -1.46484327
v 0.60028249 1.62449813 -1.46484327
v 0.60028267 1.62449813 -1.69822967
v 0.60028249 0.78757048 -1.46484327
v 0.81360477 0.78757048 -1.46484315
v 0.81360477 1.62449813 -1.46484315
v 0.60028249 1.62449813 -1.46484327
v 0.81360477 1.62449813 -1.69822967
v 0.81360477 1.62449813 -1.46484315
v 0.60028267 1.62449813 -1.69822967
v 0.81360477 1.62449813 -1.69822967
v -1.31961536 0.78757048 -1.46484315
v -1.12762570 0.78757048 -1.46484327
v -1.12762570 1.62449813 -1.46484327
v -1.31961536 1.62449813 -1.46484315
v -1.12762570 0.78757048 -1.46484327
v -1.12762570 0.78757048 -1.69822967
v -1.12762570 1.62449813 -1.69822967
v -1.12762570 1.62449813 -1.46484327
v -1.31961536 1.62449813 -1.69822967
v -1.12762570 1.62449813 -1.69822967
v -1.31961536 1.62449813 -1.46484315
v -1.31961536 1.62449813 -1.69822967
v -1.22620606 1.72812486 0.92660856
v -1.22620606 1.51146579 0.92660856
v 0.84642786 1.51146579 0.92660844
v 0.84642786 1.72812486 0.92660844
v 0.84642786 1.72812486 -1.49079919
v -1.22620583 1.72812486 -1.49079931
v -1.22620606 1.72812486 0.66095924
v 0.84642786 1.72812486 0.66095924
v -1.22620606 1.51146579 -1.72988367
v -1.22620606 1.72812486 -1.72988367
v 0.84642786 1.72812486 -1.72988355
v 0.84642786 1.51146579 -1.72988355
v 0.84642786 1.51146579 0.66095912
v -1.22620583 1.51146555 0.66095924
v -1.22620606 1.51146555 -1.49079931
v 0.84642786 1.51146555 -1.49079919
v 0.84642786 1.72812486 0.66095924
v 0.84642786 1.51146579 0.66095912
v 0.84642786 1.51146555 -1.49079919
v 0.84642786 1.72812486 -1.49079919
v -1.35243845 1.72812486 -1.49079919
v -1.35243845 1.51146555 -1.49079919
v -1.35243845 1.51146579 0.66095912
v -1.35243845 1.72812486 0.66095924
v -1.35243845 1.51146555 -1.49079919
v -1.35243845 1.51146579 0.66095912
v -1.35243845 1.72812486 -1.72988355
v -1.35243845 1.51146579 -1.72988355
v -1.35243845 3.79439259 0.66095901
v -1.22620606 3.79439259 0.66095901
v -1.22620583 3.79439259 -1.49079955
v -1.35243845 3.79439259 -1.49079943
v -1.35243845 1.51146579 0.92660844
v -1.35243845 1.72812486 0.92660844
v -1.35243845 3.79444504 0.92660844
v -1.22620606 3.79444504 0.92660856
v -1.22620606 3.79444504 0.66095924
v -1.35243845 3.79444504 0.66095924
v -1.22620606 1.72812486 0.92660856
v 0.84642786 1.72812486 0.92660844
v 0.84642786 1.51146579 0.92660844
v 0.84642786 1.72812486 0.92660844
v -1.22620606 1.51146579 0.92660856
v 0.84642786 1.51146579 0.92660844
v -1.35243845 1.51146579 0.92660844
v -1.35243845 1.51146579 0.92660844
v -1.35243845 1.72812486 0.92660844
v -1.35243845 1.51146579 -1.72988355
v -1.22620606 1.51146579 -1.72988367
v 0.84642786 1.51146579 -1.72988355
v 0.84642786 1.51146579 -1.72988355
v 0.84642786 1.72812486 -1.72988355
v -1.22620606 1.72812486 -1.72988367
v 0.84642786 1.72812486 -1.72988355
v -1.35243845 3.79444456 -1.49079585
v -1.22620583 3.79444456 -1.49079597
v -1.22620606 3.79444456 -1.72988033
v -1.35243845 3.79444456 -1.72988021
v -1.35243845 1.51146579 -1.72988355
v -1.35243845 1.72812486 -1.72988355
v -1.35243845 3.58776569 0.66095901
v -1.22620606 3.58776569 0.66095901
v -1.22620606 3.79439259 0.66095901
v -1.35243845 3.79439259 0.66095901
v -1.17237639 3.58776569 0.66095901
v -1.17237628 3.58776569 -1.49079955
v -1.17237628 3.79439259 -1.49079955
v -1.17237639 3.79439259 0.66095901
v -1.22620583 3.58776569 -1.49079955
v -1.35243845 3.58776569 -1.49079943
v -1.35243845 3.79439259 -1.49079943
v -1.22620583 3.79439259 -1.49079955
v -1.35243845 3.58776569 -1.49079943
v -1.35243845 3.58776569 0.66095901
v -1.35243845 3.79439259 0.66095901
v -1.35243845 3.79439259 -1.49079943
v -1.22620606 3.79444504 0.92660856
v -1.35243845 3.79444504 0.92660844
v -1.17428541 1.72812486 0.92660856
v -1.17428541 1.72812486 0.66095924
v -1.17428541 3.79444504 0.66095924
v -1.17428541 3.79444504 0.92660856
v -1.22620606 1.72812486 0.66095924
v -1.35243845 1.72812486 0.66095924
v -1.35243845 3.79444504 0.66095924
v -1.22620606 3.79444504 0.66095924
v -1.35243845 3.79444504 0.92660844
v -1.35243845 3.79444504 0.66095924
v -1.35243845 1.72812486 -1.49079919
v -1.22620583 1.72812486 -1.49079931
v -1.22620583 3.79444456 -1.49079597
v -1.35243845 3.79444456 -1.49079585
v -1.17428541 1.72812486 -1.49079931
v -1.17428541 1.72812486 -1.72988367
v -1.17428541 3.79444456 -1.72988033
v -1.17428541 3.79444456 -1.49079597
v -1.35243845 3.79444456 -1.72988021
v -1.22620606 3.79444456 -1.72988033
v -1.35243845 3.79444456 -1.49079585
v -1.35243845 3.79444456 -1.72988021
v -1.22620606 1.72812486 0.92660856
v -1.22620606 1.72812486 0.66095924
v -1.17428541 1.72812486 0.66095924
v -1.17428541 1.72812486 0.92660856
v -1.17428541 3.79444504 0.66095924
v -1.17428541 1.72812486 0.66095924
v -1.17428541 3.79444504 0.92660856
v -1.17428541 3.79444504 0.66095924
v -1.17428541 1.72812486 0.92660856
v -1.17428541 3.79444504 0.92660856
v -1.22620583 1.72812486 -1.49079931
v -1.22620606 1.72812486 -1.72988367
v -1.17428541 1.72812486 -1.72988367
v -1.17428541 1.72812486 -1.49079931
v -1.17428541 3.79444456 -1.72988033
v -1.17428541 1.72812486 -1.72988367
v -1.17428541 3.79444456 -1.49079597
v -1.17428541 3.79444456 -1.72988033
v -1.17428541 1.72812486 -1.49079931
v -1.17428541 3.79444456 -1.49079597
v -1.35243845 1.72812486 0.66095924
v -1.22620606 1.72812486 0.66095924
v -1.22620606 1.72812486 0.66095924
v -1.22620583 1.72812486 -1.49079931
v -1.22620583 3.58776569 -1.49079955
v -1.22620606 3.58776569 0.66095901
v -1.22620583 1.72812486 -1.49079931
v -1.35243845 1.72812486 -1.49079919
v -1.22620606 3.58776569 0.66095901
v -1.22620583 3.58776569 -1.49079955
v -1.17237628 3.58776569 -1.49079955
v -1.17237639 3.58776569 0.66095901
v -1.17237628 3.79439259 -1.49079955
v -1.17237628 3.58776569 -1.49079955
v -1.17237639 3.79439259 0.66095901
v -1.17237628 3.79439259 -1.49079955
v -1.17237639 3.58776569 0.66095901
v -1.17237639 3.79439259 0.66095901
v -1.17966461 2.20690060 -1.00335968
v -1.17966461 2.41383862 -0.89272070
v -1.17966449 2.47850633 -0.34697640
v -1.14939833 2.47850633 -0.34697640
v -1.14939833 2.41383862 -0.89272070
v -1.14939833 2.20690060 -1.00335968
v -1.15462339 2.15516615 -1.00335968
v -1.17443955 2.15516615 -1.00335968
v -1.14939833 2.20690060 -1.00335968
v -1.14939833 2.41383862 -0.89272070
v -1.14939833 2.47850633 -0.34697640
v -1.15462339 2.15516615 -1.00335968
v -1.17966461 2.20690060 -1.00335968
v -1.17443955 2.15516615 -1.00335968
v -1.17966449 2.47850633 -0.34697640
v -1.17966461 2.41383862 -0.89272070
v -1.15462339 2.15516615 -1.00335968
v -1.17966449 2.47850633 -0.34697640
v -1.14939833 2.20690060 -1.00335968
v -1.14939833 2.41383862 -0.89272070
vt 0.57681209 0.12336344
vt 0.57478678 0.12460119
vt 0.57686102 0.12573236
vt 0.57276154 0.12583894
vt 0.57483566 0.12697011
vt 0.57690990 0.12810129
vt 0.57073623 0.12707669
vt 0.57281041 0.12820774
vt 0.57488459 0.12933898
vt 0.57695884 0.13047010
vt 0.56871092 0.12831438
vt 0.57078511 0.12944549
vt 0.57285935 0.13057667
vt 0.57493359 0.13170785
vt 0.57700777 0.13283890
vt 0.59182137 0.13283890
vt 0.59187037 0.13047010
vt 0.58979613 0.13160115
vt 0.58984506 0.12923235
vt 0.58777088 0.13036346
vt 0.59191924 0.12810129
vt 0.58781976 0.12799460
vt 0.58574563 0.12912577
vt 0.58989400 0.12686354
vt 0.59196812 0.12573224
vt 0.58579445 0.12675691
vt 0.58372033 0.12788808
vt 0.58786869 0.12562579
vt 0.58994287 0.12449461
vt 0.59201711 0.12336344
vt 0.60683089 0.12336344
vt 0.60480559 0.12460119
vt 0.60687983 0.12573248
vt 0.60278034 0.12583894
vt 0.60485446 0.12697011
vt 0.60692871 0.12810129
vt 0.60075510 0.12707669
vt 0.60282922 0.12820774
vt 0.60490346 0.12933898
vt 0.60697758 0.13047010
vt 0.59872979 0.12831438
vt 0.60080397 0.12944555
vt 0.60287815 0.13057673
vt 0.60495234 0.13170785
vt 0.60702658 0.13283890
vt 0.62184024 0.13283890
vt 0.62188917 0.13047010
vt 0.61981499 0.13160127
vt 0.61986393 0.12923235
vt 0.61778969 0.13036352
vt 0.62193805 0.12810129
vt 0.61783862 0.12799460
vt 0.61576444 0.12912577
vt 0.61991280 0.12686354
vt 0.62198704 0.12573236
vt 0.61581331 0.12675691
vt 0.61373913 0.12788814
vt 0.61788756 0.12562579
vt 0.61996174 0.12449473
vt 0.62203598 0.12336344
vt 0.63684976 0.12336355
vt 0.63482445 0.12460119
vt 0.63689870 0.12573248
vt 0.63279921 0.12583894
vt 0.63487333 0.12697017
vt 0.63694757 0.12810129
vt 0.63077396 0.12707669
vt 0.63284808 0.12820780
vt 0.63492227 0.12933898
vt 0.63699651 0.13047010
vt 0.62874860 0.12831438
vt 0.63082284 0.12944555
vt 0.63289702 0.13057673
vt 0.63497126 0.13170785
vt 0.63704550 0.13283890
vt 0.65185910 0.13283890
vt 0.65190804 0.13047010
vt 0.64983386 0.13160115
vt 0.64988279 0.12923235
vt 0.64780855 0.13036352
vt 0.65195698 0.12810129
vt 0.64785749 0.12799460
vt 0.64578331 0.12912577
vt 0.64993173 0.12686354
vt 0.65200591 0.12573236
vt 0.64583218 0.12675691
vt 0.64375806 0.12788814
vt 0.64790642 0.12562579
vt 0.64998060 0.12449461
vt 0.65205485 0.12336344
vt 0.66686857 0.12336355
vt 0.66484332 0.12460119
vt 0.66691750 0.12573248
vt 0.66281807 0.12583894
vt 0.66489220 0.12697011
vt 0.66696644 0.12810129
vt 0.66079277 0.12707669
vt 0.66286689 0.12820774
vt 0.66494113 0.12933898
vt 0.66701531 0.13047010
vt 0.65876746 0.12831438
vt 0.66084164 0.12944549
vt 0.66291589 0.13057673
vt 0.66499007 0.13170785
vt 0.66706431 0.13283890
vt 0.68187797 0.13283890
vt 0.68192691 0.13047010
vt 0.67985266 0.13160115
vt 0.67990160 0.12923235
vt 0.67782742 0.13036352
vt 0.68197578 0.12810129
vt 0.67787629 0.12799460
vt 0.67580217 0.12912589
vt 0.67995054 0.12686354
vt 0.68202472 0.12573236
vt 0.67585105 0.12675691
vt 0.67377687 0.12788814
vt 0.67792523 0.12562579
vt 0.67999947 0.12449473
vt 0.68207371 0.12336344
vt 0.69688743 0.12336344
vt 0.69486213 0.12460119
vt 0.69693637 0.12573236
vt 0.69283688 0.12583894
vt 0.69491100 0.12697011
vt 0.69698524 0.12810129
vt 0.69081157 0.12707669
vt 0.69288576 0.12820774
vt 0.69496000 0.12933892
vt 0.69703418 0.13047010
vt 0.68878627 0.12831438
vt 0.69086051 0.12944549
vt 0.69293475 0.13057667
vt 0.69500893 0.13170785
vt 0.69708318 0.13283890
vt 0.71189678 0.13283890
vt 0.71194571 0.13046992
vt 0.70987147 0.13160115
vt 0.70992047 0.12923229
vt 0.70784622 0.13036346
vt 0.71199459 0.12810111
vt 0.70789510 0.12799460
vt 0.70582098 0.12912571
vt 0.70996934 0.12686336
vt 0.71204346 0.12573224
vt 0.70586979 0.12675691
vt 0.70379567 0.12788796
vt 0.70794398 0.12562561
vt 0.71001822 0.12449455
vt 0.71209246 0.12336344
vt 0.72690624 0.12336344
vt 0.72488099 0.12460107
vt 0.72695524 0.12573224
vt 0.72285575 0.12583882
vt 0.72492987 0.12696999
vt 0.72700411 0.12810111
vt 0.72083044 0.12707657
vt 0.72290462 0.12820774
vt 0.72497880 0.12933880
vt 0.72705299 0.13046998
vt 0.71880513 0.12831420
vt 0.72087932 0.12944549
vt 0.72295356 0.13057655
vt 0.72502774 0.13170767
vt 0.72710198 0.13283890
vt 0.74191564 0.13283890
vt 0.74196458 0.13046998
vt 0.73989034 0.13160115
vt 0.73993933 0.12923229
vt 0.73786509 0.13036346
vt 0.74201345 0.12810111
vt 0.73791397 0.12799460
vt 0.73583984 0.12912571
vt 0.73998821 0.12686336
vt 0.74206245 0.12573224
vt 0.73588872 0.12675691
vt 0.73381454 0.12788796
vt 0.73796296 0.12562573
vt 0.74003714 0.12449455
vt 0.74211138 0.12336344
vt 0.75692505 0.12336344
vt 0.75489980 0.12460119
vt 0.75697404 0.12573236
vt 0.75287455 0.12583894
vt 0.75494874 0.12697011
vt 0.75702292 0.12810129
vt 0.75084925 0.12707669
vt 0.75292343 0.12820774
vt 0.75499767 0.12933898
vt 0.75707185 0.13047010
vt 0.74882394 0.12831438
vt 0.75089818 0.12944549
vt 0.75297242 0.13057667
vt 0.75504661 0.13170785
vt 0.75712085 0.13283890
vt 0.77193445 0.13283890
vt 0.77198339 0.13047010
vt 0.76990914 0.13160127
vt 0.76995808 0.12923235
vt 0.76788390 0.13036352
vt 0.77203226 0.12810129
vt 0.76793277 0.12799460
vt 0.76585865 0.12912589
vt 0.77000701 0.12686354
vt 0.77208120 0.12573248
vt 0.76590747 0.12675691
vt 0.76383334 0.12788814
vt 0.76798171 0.12562579
vt 0.77005589 0.12449473
vt 0.77213013 0.12336344
vt 0.78694391 0.12336344
vt 0.78491867 0.12460119
vt 0.78699279 0.12573236
vt 0.78289342 0.12583894
vt 0.78496754 0.12697011
vt 0.78704166 0.12810129
vt 0.78086817 0.12707669
vt 0.78294230 0.12820774
vt 0.78501642 0.12933892
vt 0.78709060 0.13047010
vt 0.77884269 0.12831438
vt 0.78091705 0.12944549
vt 0.78299117 0.13057667
vt 0.78506535 0.13170785
vt 0.78713965 0.13283890
vt 0.80195338 0.13283890
vt 0.80200225 0.13047010
vt 0.79992813 0.13160115
vt 0.79997700 0.12923235
vt 0.79790288 0.13036346
vt 0.80205113 0.12810129
vt 0.79795170 0.12799460
vt 0.79587752 0.12912577
vt 0.80002588 0.12686354
vt 0.80210006 0.12573224
vt 0.79592639 0.12675691
vt 0.79385221 0.12788814
vt 0.79800063 0.12562579
vt 0.80007482 0.12449461
vt 0.80214906 0.12336344
vt 0.81696272 0.06789792
vt 0.81493741 0.06913567
vt 0.81701171 0.07026678
vt 0.81291217 0.07037336
vt 0.81498629 0.07150453
vt 0.81706065 0.07263571
vt 0.81088692 0.07161111
vt 0.81296104 0.07274216
vt 0.81503534 0.07387334
vt 0.81710953 0.07500452
vt 0.80886167 0.07284886
vt 0.81093580 0.07397991
vt 0.81301010 0.07511109
vt 0.81508428 0.07624227
vt 0.81715840 0.07737339
vt 0.83197218 0.07734567
vt 0.83202112 0.07497674
vt 0.82994688 0.07610792
vt 0.82999575 0.07373905
vt 0.82792163 0.07487023
vt 0.83206999 0.07260787
vt 0.82797050 0.07250130
vt 0.82589638 0.07363248
vt 0.83004475 0.07137012
vt 0.83211899 0.07023907
vt 0.82594526 0.07126367
vt 0.82387114 0.07239473
vt 0.82801938 0.07013237
vt 0.83009362 0.06900132
vt 0.83216786 0.06787020
vt 0.02807115 0.20072711
vt 0.02946302 0.19659209
vt 0.01571332 0.19426560
vt 0.02546961 0.20422965
vt 0.02191305 0.20675683
vt 0.01774962 0.20806134
vt 0.01338686 0.20801532
vt 0.00925183 0.20662344
vt 0.00574930 0.20402193
vt 0.00322211 0.20046538
vt 0.00191765 0.19630194
vt 0.00196362 0.19193918
vt 0.00335549 0.18780416
vt 0.00595703 0.18430156
vt 0.00951358 0.18177444
vt 0.01367701 0.18046993
vt 0.01803977 0.18051594
vt 0.02217479 0.18190783
vt 0.02567733 0.18450934
vt 0.02820451 0.18806589
vt 0.02950897 0.19222933
vt 0.06342184 0.19193906
vt 0.06202996 0.18780404
vt 0.04967213 0.19426554
vt 0.05942842 0.18430150
vt 0.05587186 0.18177432
vt 0.05170843 0.18046993
vt 0.04734568 0.18051583
vt 0.04321065 0.18190765
vt 0.03970812 0.18450922
vt 0.03718092 0.18806577
vt 0.03587646 0.19222921
vt 0.03592243 0.19659203
vt 0.03731431 0.20072699
vt 0.03991584 0.20422959
vt 0.04347239 0.20675671
vt 0.04763583 0.20806116
vt 0.05199858 0.20801520
vt 0.05613360 0.20662344
vt 0.05963614 0.20402181
vt 0.06216332 0.20046526
vt 0.06346778 0.19630188
vt 0.47360677 0.13186616
vt 0.47438893 0.13031447
vt 0.46915171 0.12859440
vt 0.47238848 0.13309759
vt 0.47085336 0.13388824
vt 0.46915171 0.13416070
vt 0.46745005 0.13388824
vt 0.46591496 0.13309759
vt 0.46469671 0.13186616
vt 0.46391454 0.13031447
vt 0.46364501 0.12859440
vt 0.46391454 0.12687427
vt 0.46469671 0.12532258
vt 0.46591496 0.12409109
vt 0.46745005 0.12330043
vt 0.46915171 0.12302798
vt 0.47085336 0.12330043
vt 0.47238848 0.12409109
vt 0.47360677 0.12532258
vt 0.47438893 0.12687427
vt 0.47465840 0.12859440
vt 0.49315062 0.12687427
vt 0.49236846 0.12532258
vt 0.48791340 0.12859440
vt 0.49115017 0.12409109
vt 0.48961511 0.12330043
vt 0.48791340 0.12302798
vt 0.48621175 0.12330043
vt 0.48467666 0.12409109
vt 0.48345840 0.12532258
vt 0.48267624 0.12687427
vt 0.48240671 0.12859440
vt 0.48267624 0.13031453
vt 0.48345840 0.13186616
vt 0.48467666 0.13309759
vt 0.48621175 0.13388824
vt 0.48791340 0.13416076
vt 0.48961511 0.13388824
vt 0.49115017 0.13309759
vt 0.49236846 0.13186616
vt 0.49315062 0.13031453
vt 0.49342009 0.12859440
vt 0.94854385 0.01914984
vt 0.94862360 0.01791209
vt 0.94777828 0.01796842
vt 0.94769871 0.01920611
vt 0.50249875 0.12705433
vt 0.50266045 0.12468553
vt 0.50181526 0.12462926
vt 0.50165355 0.12699807
vt 0.94870329 0.01667440
vt 0.94785804 0.01673067
vt 0.50233710 0.12942326
vt 0.50149190 0.12936693
vt 0.94878292 0.01543665
vt 0.94793773 0.01549292
vt 0.50217539 0.13179213
vt 0.50133020 0.13173586
vt 0.94886261 0.01419890
vt 0.94801742 0.01425517
vt 0.86508143 0.09073931
vt 0.86483997 0.08866519
vt 0.86399478 0.08873284
vt 0.86423624 0.09080708
vt 0.86459863 0.08659095
vt 0.86375344 0.08665860
vt 0.86435729 0.08451670
vt 0.86351210 0.08458441
vt 0.86411595 0.08244258
vt 0.86327076 0.08251011
vt 0.50201368 0.13416100
vt 0.50116855 0.13410467
vt 0.95604861 0.01914978
vt 0.95612830 0.01791209
vt 0.95528316 0.01796842
vt 0.95520341 0.01920611
vt 0.51000351 0.12705433
vt 0.51016515 0.12468553
vt 0.50932002 0.12462926
vt 0.50915831 0.12699807
vt 0.95620793 0.01667440
vt 0.95536274 0.01673067
vt 0.50984180 0.12942326
vt 0.50899661 0.12936693
vt 0.95628762 0.01543665
vt 0.95544249 0.01549292
vt 0.50968009 0.13179213
vt 0.50883496 0.13173580
vt 0.95636737 0.01419890
vt 0.95552206 0.01425517
vt 0.87446237 0.09073931
vt 0.87422097 0.08866519
vt 0.87337577 0.08873284
vt 0.87361723 0.09080708
vt 0.87397963 0.08659106
vt 0.87313443 0.08665860
vt 0.87373829 0.08451682
vt 0.87289310 0.08458441
vt 0.87349689 0.08244258
vt 0.87265176 0.08251017
vt 0.50951844 0.13416100
vt 0.50867319 0.13410467
vt 0.96042323 0.01030010
vt 0.96050292 0.00906235
vt 0.95965767 0.00911874
vt 0.95957804 0.01035637
vt 0.51750815 0.12705433
vt 0.51766986 0.12468553
vt 0.51682466 0.12462926
vt 0.51666301 0.12699807
vt 0.96058255 0.00782472
vt 0.95973736 0.00788099
vt 0.51734650 0.12942314
vt 0.51650131 0.12936693
vt 0.96066225 0.00658697
vt 0.95981705 0.00664324
vt 0.51718479 0.13179207
vt 0.51633966 0.13173580
vt 0.96074194 0.00534922
vt 0.95989680 0.00540560
vt 0.88384318 0.09073931
vt 0.88360173 0.08866519
vt 0.88275659 0.08873272
vt 0.88299799 0.09080708
vt 0.88336039 0.08659095
vt 0.88251525 0.08665860
vt 0.88311905 0.08451670
vt 0.88227391 0.08458441
vt 0.88287771 0.08244258
vt 0.88203251 0.08251011
vt 0.51702315 0.13416100
vt 0.51617795 0.13410461
vt 0.95335311 0.01030010
vt 0.95343280 0.00906247
vt 0.95258754 0.00911874
vt 0.95250791 0.01035637
vt 0.52501291 0.12705433
vt 0.52517456 0.12468553
vt 0.52432942 0.12462926
vt 0.52416772 0.12699807
vt 0.95351243 0.00782472
vt 0.95266724 0.00788099
vt 0.52485120 0.12942314
vt 0.52400607 0.12936687
vt 0.95359212 0.00658697
vt 0.95274699 0.00664324
vt 0.52468956 0.13179207
vt 0.52384436 0.13173580
vt 0.95367187 0.00534934
vt 0.95282668 0.00540560
vt 0.89322406 0.09073931
vt 0.89298272 0.08866519
vt 0.89213747 0.08873284
vt 0.89237881 0.09080708
vt 0.89274132 0.08659095
vt 0.89189613 0.08665860
vt 0.89249992 0.08451670
vt 0.89165479 0.08458441
vt 0.89225858 0.08244258
vt 0.89141345 0.08251011
vt 0.52452785 0.13416088
vt 0.52368265 0.13410461
vt 0.94628298 0.00694281
vt 0.94636273 0.00570506
vt 0.94551742 0.00576133
vt 0.94543779 0.00699908
vt 0.53251761 0.12705439
vt 0.53267926 0.12468553
vt 0.53183413 0.12462926
vt 0.53167242 0.12699807
vt 0.94644231 0.00446737
vt 0.94559717 0.00452363
vt 0.53235590 0.12942326
vt 0.53151071 0.12936693
vt 0.94652206 0.00322968
vt 0.94567686 0.00328600
vt 0.53219420 0.13179213
vt 0.53134906 0.13173586
vt 0.94660175 0.00199199
vt 0.94575655 0.00204825
vt 0.90260500 0.09073931
vt 0.90236354 0.08866519
vt 0.90151834 0.08873272
vt 0.90175980 0.09080708
vt 0.90212220 0.08659106
vt 0.90127701 0.08665860
vt 0.90188086 0.08451670
vt 0.90103567 0.08458441
vt 0.90163952 0.08244258
vt 0.90079433 0.08251011
vt 0.53203255 0.13416100
vt 0.53118730 0.13410467
vt 0.93921292 0.00694281
vt 0.93929261 0.00570506
vt 0.93844736 0.00576144
vt 0.93836772 0.00699908
vt 0.54002231 0.12897092
vt 0.54018402 0.12660205
vt 0.53933883 0.12654579
vt 0.53917712 0.12891459
vt 0.93937224 0.00446743
vt 0.93852705 0.00452369
vt 0.53986067 0.13133973
vt 0.53901547 0.13128346
vt 0.93945193 0.00322968
vt 0.93860674 0.00328600
vt 0.53969896 0.13370866
vt 0.53885376 0.13365233
vt 0.93953162 0.00199199
vt 0.93868649 0.00204831
vt 0.91198575 0.09073931
vt 0.91174436 0.08866519
vt 0.91089916 0.08873284
vt 0.91114062 0.09080708
vt 0.91150302 0.08659095
vt 0.91065782 0.08665860
vt 0.91126162 0.08451670
vt 0.91041648 0.08458441
vt 0.91102028 0.08244258
vt 0.91017514 0.08251011
vt 0.53953725 0.13607752
vt 0.53869206 0.13602120
vt 0.93214279 0.00694281
vt 0.93222249 0.00570506
vt 0.93137723 0.00576133
vt 0.93129760 0.00699908
vt 0.54752702 0.12897092
vt 0.54768866 0.12660205
vt 0.54684353 0.12654579
vt 0.54668182 0.12891459
vt 0.93230212 0.00446737
vt 0.93145692 0.00452369
vt 0.54736531 0.13133979
vt 0.54652017 0.13128352
vt 0.93238181 0.00322968
vt 0.93153667 0.00328600
vt 0.54720366 0.13370866
vt 0.54635847 0.13365233
vt 0.93246156 0.00199199
vt 0.93161637 0.00204825
vt 0.92136675 0.01913840
vt 0.92112535 0.01706427
vt 0.92028016 0.01713187
vt 0.92052162 0.01920611
vt 0.92088395 0.01499003
vt 0.92003882 0.01505762
vt 0.92064261 0.01291579
vt 0.91979748 0.01298350
vt 0.92040128 0.01084161
vt 0.91955608 0.01090914
vt 0.54704195 0.13607752
vt 0.54619676 0.13602126
vt 0.92507267 0.00694281
vt 0.92515236 0.00570506
vt 0.92430711 0.00576144
vt 0.92422748 0.00699908
vt 0.55503172 0.12897092
vt 0.55519342 0.12660205
vt 0.55434823 0.12654579
vt 0.55418658 0.12891459
vt 0.92523199 0.00446737
vt 0.92438686 0.00452369
vt 0.55487007 0.13133979
vt 0.55402488 0.13128352
vt 0.92531174 0.00322968
vt 0.92446655 0.00328600
vt 0.55470836 0.13370872
vt 0.55386323 0.13365245
vt 0.92539144 0.00199199
vt 0.92454624 0.00204831
vt 0.93074757 0.01913840
vt 0.93050611 0.01706427
vt 0.92966098 0.01713181
vt 0.92990237 0.01920611
vt 0.93026477 0.01499003
vt 0.92941958 0.01505762
vt 0.93002343 0.01291579
vt 0.92917824 0.01298350
vt 0.92978209 0.01084161
vt 0.92893690 0.01090914
vt 0.55454671 0.13607752
vt 0.55370152 0.13602126
vt 0.91800255 0.00694281
vt 0.91808230 0.00570506
vt 0.91723704 0.00576133
vt 0.91715741 0.00699908
vt 0.56253642 0.12897092
vt 0.56269813 0.12660205
vt 0.56185293 0.12654579
vt 0.56169122 0.12891459
vt 0.91816193 0.00446743
vt 0.91731673 0.00452369
vt 0.56237477 0.13133979
vt 0.56152958 0.13128352
vt 0.91824162 0.00322968
vt 0.91739643 0.00328600
vt 0.56221306 0.13370872
vt 0.56136787 0.13365245
vt 0.91832131 0.00199199
vt 0.91747618 0.00204831
vt 0.94012845 0.01913840
vt 0.93988705 0.01706427
vt 0.93904185 0.01713181
vt 0.93928319 0.01920611
vt 0.93964565 0.01499003
vt 0.93880051 0.01505762
vt 0.93940431 0.01291579
vt 0.93855917 0.01298350
vt 0.93916297 0.01084161
vt 0.93831778 0.01090914
vt 0.56205136 0.13607752
vt 0.56120622 0.13602126
vt 0.83888042 0.06875867
vt 0.83888042 0.07734567
vt 0.84556603 0.07734567
vt 0.84556603 0.06875867
vt 0.90311158 0.21653396
vt 0.91169846 0.21653396
vt 0.90956140 0.18084908
vt 0.90524864 0.18084908
vt 0.81283104 0.13700676
vt 0.81565470 0.13700676
vt 0.81853640 0.10132200
vt 0.80994940 0.10132200
vt 0.89051962 0.11478329
vt 0.89051962 0.15046811
vt 0.89720523 0.15046811
vt 0.89720523 0.11478329
vt 0.85118520 0.16738772
vt 0.85118520 0.20307261
vt 0.85787082 0.20307261
vt 0.85787082 0.16738772
vt 0.36233136 0.15330875
vt 0.37091830 0.15330875
vt 0.37091830 0.13191468
vt 0.36233136 0.13191468
vt 0.86912555 0.11478329
vt 0.86912555 0.15046811
vt 0.82979113 0.16738772
vt 0.82979113 0.20307261
vt 0.85201371 0.06875867
vt 0.85201371 0.07734567
vt 0.85736227 0.07734567
vt 0.85736227 0.06875867
vt 0.86377698 0.11478329
vt 0.86377698 0.15046811
vt 0.82444257 0.16738772
vt 0.82444257 0.20307261
vt 0.37734082 0.14368862
vt 0.38592777 0.14368862
vt 0.38592777 0.12355483
vt 0.37734082 0.12355483
vt 0.87985533 0.09464943
vt 0.87316978 0.09464943
vt 0.90311158 0.23666787
vt 0.91169846 0.23666787
vt 0.83383524 0.22320640
vt 0.84052092 0.22320640
vt 0.81853640 0.08121592
vt 0.80994940 0.08121592
vt 0.39235023 0.14306813
vt 0.39769876 0.14306813
vt 0.40180945 0.12296206
vt 0.39646092 0.12296206
vt 0.41782278 0.12296206
vt 0.40923581 0.12296206
vt 0.40923581 0.14306813
vt 0.41782278 0.14306813
vt 0.42959380 0.12296194
vt 0.42424527 0.12296194
vt 0.42835596 0.14306813
vt 0.43370450 0.14306813
vt 0.90896958 0.16250908
vt 0.90584046 0.16250908
vt 0.81321853 0.22320640
vt 0.81526721 0.22320640
vt 0.55561280 0.17426646
vt 0.57111198 0.17426646
vt 0.57111198 0.13991988
vt 0.55561280 0.13991988
vt 0.44113082 0.11866164
vt 0.44113082 0.13416076
vt 0.45616999 0.13416076
vt 0.45616999 0.11866164
vt 0.53420746 0.22320640
vt 0.54970664 0.22320640
vt 0.54970664 0.18885988
vt 0.53420746 0.18885988
vt 0.12863255 0.23979402
vt 0.13783038 0.23979402
vt 0.13783038 0.20506048
vt 0.12863255 0.20506048
vt 0.50341493 0.17234993
vt 0.51845407 0.17234993
vt 0.51845407 0.13800335
vt 0.50341493 0.13800335
vt 0.46277520 0.17234981
vt 0.47781438 0.17234981
vt 0.47781438 0.13800323
vt 0.46277520 0.13800323
vt 0.54970664 0.17519498
vt 0.53420746 0.17519498
vt 0.49902603 0.18601471
vt 0.52284300 0.18601471
vt 0.55561280 0.18793130
vt 0.57111198 0.18793130
vt 0.45838630 0.18601459
vt 0.48220327 0.18601459
vt 0.53420746 0.17519498
vt 0.54970664 0.17519498
vt 0.54970664 0.17223090
vt 0.53420746 0.17223090
vt 0.50040132 0.18897885
vt 0.52146769 0.18897885
vt 0.57111198 0.18793130
vt 0.55561280 0.18793130
vt 0.55561280 0.19089544
vt 0.57111198 0.19089544
vt 0.45976162 0.18897879
vt 0.48082799 0.18897879
vt 0.53420746 0.17223090
vt 0.54970664 0.17223090
vt 0.54970664 0.16046357
vt 0.53420746 0.16046357
vt 0.49356776 0.20074618
vt 0.52830124 0.20074618
vt 0.57111198 0.19089544
vt 0.55561280 0.19089544
vt 0.55561280 0.20266277
vt 0.57111198 0.20266277
vt 0.45292804 0.20074612
vt 0.48766154 0.20074612
vt 0.53420746 0.16046357
vt 0.54970664 0.16046357
vt 0.54655600 0.13991988
vt 0.53735816 0.13991988
vt 0.49356776 0.22128987
vt 0.52830124 0.22128987
vt 0.57111198 0.20266277
vt 0.55561280 0.20266277
vt 0.55876350 0.22320640
vt 0.56796134 0.22320640
vt 0.45292804 0.22128969
vt 0.48766154 0.22128969
vt 0.11256158 0.23979396
vt 0.11669659 0.23979396
vt 0.11669659 0.21190369
vt 0.11256158 0.21190369
vt 0.12019917 0.23979396
vt 0.12019917 0.21190369
vt 0.12272630 0.23979396
vt 0.12272630 0.21190369
vt 0.09197106 0.21190369
vt 0.08780763 0.21190369
vt 0.08780763 0.23979396
vt 0.09197106 0.23979396
vt 0.08344487 0.21190369
vt 0.08344487 0.23979396
vt 0.07930984 0.21190369
vt 0.07930984 0.23979396
vt 0.07340363 0.21190369
vt 0.07080209 0.21190369
vt 0.07080209 0.23979396
vt 0.07340363 0.23979396
vt 0.06724554 0.21190369
vt 0.06724554 0.23979396
vt 0.06308212 0.21190369
vt 0.06308212 0.23979396
vt 0.05871933 0.21190369
vt 0.05871933 0.23979396
vt 0.05458432 0.21190369
vt 0.05458432 0.23979396
vt 0.05108174 0.21190369
vt 0.05108174 0.23979396
vt 0.04855461 0.21190369
vt 0.04855461 0.23979396
vt 0.02998720 0.23979402
vt 0.03415063 0.23979402
vt 0.03415063 0.21190369
vt 0.02998720 0.21190369
vt 0.03851339 0.23979402
vt 0.03851339 0.21190369
vt 0.04264841 0.23979402
vt 0.04264841 0.21190369
vt 0.09787728 0.23979396
vt 0.10047882 0.23979396
vt 0.10047882 0.21190369
vt 0.09787728 0.21190369
vt 0.10403536 0.23979396
vt 0.10403536 0.21190369
vt 0.10819878 0.23979396
vt 0.10819878 0.21190369
vt 0.39780384 0.22124994
vt 0.39935556 0.22113448
vt 0.39935556 0.14771080
vt 0.39780384 0.14782625
vt 0.40058702 0.22095466
vt 0.40058702 0.14753103
vt 0.43618420 0.14691049
vt 0.43464908 0.14713705
vt 0.44548678 0.22056085
vt 0.44702184 0.22033423
vt 0.43294743 0.14738840
vt 0.44378507 0.22081196
vt 0.43124577 0.14763951
vt 0.44208342 0.22106308
vt 0.42971069 0.14786607
vt 0.44054833 0.22128969
vt 0.37666765 0.22128969
vt 0.37789911 0.22110993
vt 0.37789911 0.14768630
vt 0.37666765 0.14786607
vt 0.37945086 0.22099447
vt 0.37945086 0.14757079
vt 0.38117096 0.22095466
vt 0.38117096 0.14753103
vt 0.38289106 0.22099447
vt 0.38289106 0.14757079
vt 0.38444278 0.22110993
vt 0.38444278 0.14768630
vt 0.38567424 0.22128969
vt 0.38567424 0.14786607
vt 0.40649331 0.22033417
vt 0.40802839 0.22056085
vt 0.41886604 0.14713705
vt 0.41733095 0.14691049
vt 0.40973005 0.22081196
vt 0.42056769 0.14738822
vt 0.41143170 0.22106308
vt 0.42226937 0.14763951
vt 0.41296682 0.22128969
vt 0.42380446 0.14786607
vt 0.39158046 0.22095466
vt 0.39281192 0.22113448
vt 0.39281192 0.14771080
vt 0.39158046 0.14753103
vt 0.39436361 0.22124994
vt 0.39436361 0.14782625
vt 0.39608374 0.22128969
vt 0.39608374 0.14786607
vt 0.57914001 0.42553580
vt 0.56718332 0.42553580
vt 0.53888100 0.44758993
vt 0.57914001 0.44758993
vt 0.95060325 0.75404233
vt 0.92854917 0.75404233
vt 0.92854917 0.97119856
vt 0.95060325 0.97119856
vt 0.77038252 0.42553586
vt 0.75842577 0.42553586
vt 0.75842577 0.44758993
vt 0.79868478 0.44758993
vt 0.93868774 0.48478681
vt 0.93868774 0.70194298
vt 0.96074194 0.70194298
vt 0.96074194 0.48478681
vt 0.64776957 0.47824180
vt 0.63581288 0.47824180
vt 0.63581288 0.69539797
vt 0.64776957 0.69539797
vt 0.47924298 0.47556078
vt 0.46728626 0.47556078
vt 0.46728626 0.69271696
vt 0.47924298 0.69271696
vt 0.10717122 0.17440861
vt 0.10717122 0.20121801
vt 0.12922534 0.20121801
vt 0.12922534 0.17440861
vt 0.60751051 0.45143235
vt 0.64776957 0.45143235
vt 0.13531387 0.14500350
vt 0.13531387 0.17181295
vt 0.15736800 0.17181295
vt 0.15736800 0.14500350
vt 0.43898386 0.71952641
vt 0.47924298 0.71952641
vt 0.76004958 0.45797735
vt 0.76004958 0.48478681
vt 0.93868774 0.45797735
vt 0.76004958 0.70194298
vt 0.77038252 0.24689758
vt 0.75842577 0.24689758
vt 0.74991089 0.75404233
vt 0.74991089 0.97119850
vt 0.74991089 0.99800795
vt 0.92854917 0.99800795
vt 0.57914001 0.24689752
vt 0.56718332 0.24689752
vt 0.16345654 0.17181295
vt 0.18330522 0.17181295
vt 0.18330522 0.14500350
vt 0.16345654 0.14500350
vt 0.74020088 0.70194298
vt 0.74020088 0.48478681
vt 0.75842577 0.22704887
vt 0.79868478 0.22704887
vt 0.73006225 0.97119856
vt 0.73006225 0.75404233
vt 0.18972303 0.17181295
vt 0.20957170 0.17181295
vt 0.20957170 0.14500350
vt 0.18972303 0.14500350
vt 0.53888100 0.22704881
vt 0.57914001 0.22704881
vt 0.25351310 0.17181289
vt 0.27336177 0.17181289
vt 0.27336177 0.14768445
vt 0.25351310 0.14768445
vt 0.76004958 0.72607148
vt 0.93868774 0.72607148
vt 0.30183369 0.12918043
vt 0.27977955 0.12918043
vt 0.27977955 0.15330887
vt 0.30183369 0.15330887
vt 0.60751051 0.71952641
vt 0.64776957 0.71952641
vt 0.30792224 0.12918031
vt 0.30792221 0.15330875
vt 0.32997638 0.15330875
vt 0.32997638 0.12918031
vt 0.74991089 0.72991389
vt 0.92854917 0.72991389
vt 0.33606490 0.15330875
vt 0.35591361 0.15330875
vt 0.35591361 0.12918031
vt 0.33606490 0.12918031
vt 0.43898386 0.45143235
vt 0.47924298 0.45143235
vt 0.37076148 0.15715110
vt 0.34395203 0.15715110
vt 0.34395203 0.22128975
vt 0.37076148 0.22128975
vt 0.31599170 0.22128975
vt 0.33804584 0.22128975
vt 0.33804584 0.15715122
vt 0.31599170 0.15715122
vt 0.57167429 0.45143235
vt 0.57167429 0.47824180
vt 0.50304472 0.42553580
vt 0.50304472 0.44758993
vt 0.29023683 0.22128975
vt 0.31008551 0.22128975
vt 0.31008551 0.15715122
vt 0.29023683 0.15715122
vt 0.28433061 0.18922132
vt 0.25752115 0.18922132
vt 0.25752115 0.25336003
vt 0.28433061 0.25336003
vt 0.50304472 0.22704881
vt 0.50304472 0.24689752
vt 0.40314761 0.69271696
vt 0.40314761 0.71952641
vt 0.83452100 0.24689758
vt 0.83452100 0.22704887
vt 0.25161493 0.17565531
vt 0.22748649 0.17565531
vt 0.22748649 0.23979402
vt 0.25161493 0.23979402
vt 0.22158024 0.17565531
vt 0.20173156 0.17565531
vt 0.20173156 0.23979402
vt 0.22158024 0.23979402
vt 0.40314770 0.45143235
vt 0.40314770 0.47556078
vt 0.19582537 0.17565531
vt 0.17377123 0.17565531
vt 0.17377123 0.23979402
vt 0.19582537 0.23979402
vt 0.16786504 0.17565531
vt 0.14373657 0.17565531
vt 0.14373657 0.23979402
vt 0.16786504 0.23979402
vt 0.83452100 0.44758993
vt 0.83452100 0.42553586
vt 0.57167429 0.69539797
vt 0.57167429 0.71952641
vt 0.77723372 0.22320640
vt 0.80404317 0.22320640
vt 0.80404317 0.13668138
vt 0.77723372 0.13668138
vt 0.66566509 0.44758993
vt 0.66566509 0.42553580
vt 0.73429459 0.47824180
vt 0.73429459 0.45143235
vt 0.77132761 0.13668138
vt 0.74927348 0.13668138
vt 0.74927348 0.22320640
vt 0.77132761 0.22320640
vt 0.66566509 0.24689752
vt 0.66566509 0.22704881
vt 0.71655780 0.22320640
vt 0.74336725 0.22320640
vt 0.74336725 0.13668138
vt 0.71655780 0.13668138
vt 0.71065158 0.13668138
vt 0.69080287 0.13668138
vt 0.69080287 0.22320640
vt 0.71065158 0.22320640
vt 0.56576806 0.71952641
vt 0.56576806 0.69271696
vt 0.66076821 0.22320640
vt 0.68489665 0.22320640
vt 0.68489665 0.13668138
vt 0.66076821 0.13668138
vt 0.63280785 0.22320640
vt 0.65486193 0.22320640
vt 0.65486193 0.13668138
vt 0.63280785 0.13668138
vt 0.73429459 0.71952641
vt 0.73429459 0.69539797
vt 0.67190069 0.42553586
vt 0.67190069 0.44758993
vt 0.60705292 0.22320640
vt 0.62690163 0.22320640
vt 0.62690163 0.13668138
vt 0.60705292 0.13668138
vt 0.57701820 0.22320640
vt 0.60114664 0.22320640
vt 0.60114664 0.13668138
vt 0.57701820 0.13668138
vt 0.67190069 0.22704887
vt 0.67190069 0.24689758
vt 0.56576800 0.47556078
vt 0.56576800 0.45143235
vt 0.18296400 0.69712728
vt 0.18296400 0.71952641
vt 0.39724144 0.71952641
vt 0.39724144 0.69712728
vt 0.21619509 0.74808633
vt 0.00191767 0.74808633
vt 0.00191765 0.97054398
vt 0.21619509 0.97054398
vt 0.01496807 0.24363637
vt 0.01496807 0.26603556
vt 0.22924553 0.26603556
vt 0.22924553 0.24363637
vt 0.45082211 0.75083280
vt 0.23654467 0.75083280
vt 0.23654467 0.97329044
vt 0.45082211 0.97329044
vt 0.48041564 0.75083280
vt 0.45801648 0.75083280
vt 0.45801648 0.97329044
vt 0.48041564 0.97329044
vt 0.51043445 0.74808645
vt 0.48803526 0.74808645
vt 0.48803526 0.97054404
vt 0.51043445 0.97054404
vt 0.22349423 0.97329044
vt 0.22349423 0.75083280
vt 0.00191765 0.26603556
vt 0.00191765 0.24363637
vt 0.23662746 0.47966015
vt 0.24967788 0.47966015
vt 0.24967793 0.25720245
vt 0.23662746 0.25720245
vt 0.16991358 0.71952641
vt 0.16991358 0.69712728
vt 0.06964765 0.20806116
vt 0.08269808 0.20806116
vt 0.08269808 0.18059725
vt 0.06964765 0.18059725
vt 0.00191765 0.99800795
vt 0.21619509 0.99800795
vt 0.45801648 0.72336882
vt 0.48041564 0.72336882
vt 0.23654467 0.72336888
vt 0.45082211 0.72336888
vt 0.22349423 0.72336888
vt 0.48803526 0.99800795
vt 0.51043445 0.99800795
vt 0.22349423 0.99800795
vt 0.23654467 0.99800795
vt 0.45082211 0.99800795
vt 0.45801648 0.99800795
vt 0.48041564 0.99800795
vt 0.00191765 0.72336882
vt 0.21619509 0.72336882
vt 0.21598952 0.17181295
vt 0.22903998 0.17181295
vt 0.22903992 0.14709538
vt 0.21598952 0.14709538
vt 0.48803526 0.72336888
vt 0.51043445 0.72336888
vt 0.94212639 0.04441047
vt 0.95517683 0.04441047
vt 0.95517683 0.02304846
vt 0.94212639 0.02304846
vt 0.26289397 0.25720245
vt 0.26289397 0.47966015
vt 0.28425592 0.47966015
vt 0.28425592 0.25720245
vt 0.93065512 0.21530581
vt 0.91760468 0.21530581
vt 0.91760468 0.23666787
vt 0.93065512 0.23666787
vt 0.70269173 0.74808633
vt 0.70269173 0.97054404
vt 0.72405368 0.97054404
vt 0.72405368 0.74808633
vt 0.18296400 0.48350263
vt 0.16991358 0.48350263
vt 0.84075654 0.45413500
vt 0.86822051 0.45413500
vt 0.86822051 0.24051028
vt 0.84075654 0.24051028
vt 0.88757825 0.24051028
vt 0.87452781 0.24051028
vt 0.87452781 0.45413494
vt 0.88757825 0.45413494
vt 0.72405910 0.99800795
vt 0.72405910 0.97054404
vt 0.89891809 0.45413500
vt 0.91196853 0.45413500
vt 0.91196853 0.24051028
vt 0.89891809 0.24051028
vt 0.92330891 0.45413500
vt 0.94802630 0.45413500
vt 0.94802600 0.24051028
vt 0.92330849 0.24051028
vt 0.00191765 0.47966015
vt 0.01496807 0.47966015
vt 0.72405905 0.74808669
vt 0.72405905 0.72336918
vt 0.09403796 0.18059731
vt 0.09403796 0.20806128
vt 0.09940574 0.20806128
vt 0.09940574 0.18059731
vt 0.89294600 0.45413494
vt 0.89294600 0.24051028
vt 0.08806585 0.20806116
vt 0.08806585 0.18059725
vt 0.18833177 0.69712728
vt 0.18833177 0.48350263
vt 0.24037986 0.14709538
vt 0.24037983 0.17181295
vt 0.24574760 0.17181295
vt 0.24574760 0.14709538
vt 0.02033584 0.47966015
vt 0.02033584 0.26603556
vt 0.23440771 0.17181295
vt 0.23440771 0.14709538
vt 0.91733629 0.45413500
vt 0.91733629 0.24051028
vt 0.94212639 0.23666787
vt 0.95517683 0.23666787
vt 0.29103667 0.22513223
vt 0.29103667 0.44758993
vt 0.48329398 0.44758993
vt 0.48329398 0.22513223
vt 0.93065512 0.02304846
vt 0.91760468 0.02304846
vt 0.48991144 0.22513223
vt 0.48991144 0.44758993
vt 0.49547657 0.44758993
vt 0.49547657 0.22513223
vt 0.93622023 0.23666787
vt 0.93622023 0.21530581
vt 0.25524303 0.47966015
vt 0.25524303 0.25720245
vt 0.96074194 0.04441047
vt 0.96074194 0.02304846
vt 0.90584046 0.09464943
vt 0.90584046 0.10608774
vt 0.90584046 0.16250908
vt 0.90896958 0.16250908
vt 0.90896958 0.10608774
vt 0.90896958 0.09464943
vt 0.90842932 0.09464943
vt 0.90638065 0.09464943
vt 0.86912555 0.23666787
vt 0.89051962 0.22522944
vt 0.89720523 0.16880822
vt 0.86377698 0.23666787
vt 0.82979113 0.08118802
vt 0.82444257 0.08118802
vt 0.85787082 0.14904773
vt 0.85118520 0.09262639
vt 0.90740502 0.09464943
vt 0.90740502 0.16250908
vt 0.90740502 0.09464943
vt 0.90740502 0.10608774
f 1/1 2/2 3/3
f 2/2 4/4 5/5
f 2/2 5/5 3/3
f 3/3 5/5 6/6
f 4/4 7/7 8/8
f 4/4 8/8 5/5
f 5/5 8/8 9/9
f 5/5 9/9 6/6
f 6/6 9/9 10/10
f 7/7 11/11 12/12
f 7/7 12/12 8/8
f 8/8 12/12 13/13
f 8/8 13/13 9/9
f 9/9 13/13 14/14
f 9/9 14/14 10/10
f 10/10 14/14 15/15
f 16/16 17/17 18/18
f 18/18 19/19 20/20
f 18/18 17/17 19/19
f 17/17 21/21 19/19
f 20/20 22/22 23/23
f 20/20 19/19 22/22
f 19/19 24/24 22/22
f 19/19 21/21 24/24
f 21/21 25/25 24/24
f 23/23 26/26 27/27
f 23/23 22/22 26/26
f 22/22 28/28 26/26
f 22/22 24/24 28/28
f 24/24 29/29 28/28
f 24/24 25/25 29/29
f 25/25 30/30 29/29
f 31/31 32/32 33/33
f 32/32 34/34 35/35
f 32/32 35/35 33/33
f 33/33 35/35 36/36
f 34/34 37/37 38/38
f 34/34 38/38 35/35
f 35/35 38/38 39/39
f 35/35 39/39 36/36
f 36/36 39/39 40/40
f 37/37 41/41 42/42
f 37/37 42/42 38/38
f 38/38 42/42 43/43
f 38/38 43/43 39/39
f 39/39 43/43 44/44
f 39/39 44/44 40/40
f 40/40 44/44 45/45
f 46/46 47/47 48/48
f 48/48 49/49 50/50
f 48/48 47/47 49/49
f 47/47 51/51 49/49
f 50/50 52/52 53/53
f 50/50 49/49 52/52
f 49/49 54/54 52/52
f 49/49 51/51 54/54
f 51/51 55/55 54/54
f 53/53 56/56 57/57
f 53/53 52/52 56/56
f 52/52 58/58 56/56
f 52/52 54/54 58/58
f 54/54 59/59 58/58
f 54/54 55/55 59/59
f 55/55 60/60 59/59
f 61/61 62/62 63/63
f 62/62 64/64 65/65
f 62/62 65/65 63/63
f 63/63 65/65 66/66
f 64/64 67/67 68/68
f 64/64 68/68 65/65
f 65/65 68/68 69/69
f 65/65 69/69 66/66
f 66/66 69/69 70/70
f 67/67 71/71 72/72
f 67/67 72/72 68/68
f 68/68 72/72 73/73
f 68/68 73/73 69/69
f 69/69 73/73 74/74
f 69/69 74/74 70/70
f 70/70 74/74 75/75
f 76/76 77/77 78/78
f 78/78 79/79 80/80
f 78/78 77/77 79/79
f 77/77 81/81 79/79
f 80/80 82/82 83/83
f 80/80 79/79 82/82
f 79/79 84/84 82/82
f 79/79 81/81 84/84
f 81/81 85/85 84/84
f 83/83 86/86 87/87
f 83/83 82/82 86/86
f 82/82 88/88 86/86
f 82/82 84/84 88/88
f 84/84 89/89 88/88
f 84/84 85/85 89/89
f 85/85 90/90 89/89
f 91/91 92/92 93/93
f 92/92 94/94 95/95
f 92/92 95/95 93/93
f 93/93 95/95 96/96
f 94/94 97/97 98/98
f 94/94 98/98 95/95
f 95/95 98/98 99/99
f 95/95 99/99 96/96
f 96/96 99/99 100/100
f 97/97 101/101 102/102
f 97/97 102/102 98/98
f 98/98 102/102 103/103
f 98/98 103/103 99/99
f 99/99 103/103 104/104
f 99/99 104/104 100/100
f 100/100 104/104 105/105
f 106/106 107/107 108/108
f 108/108 109/109 110/110
f 108/108 107/107 109/109
f 107/107 111/111 109/109
f 110/110 112/112 113/113
f 110/110 109/109 112/112
f 109/109 114/114 112/112
f 109/109 111/111 114/114
f 111/111 115/115 114/114
f 113/113 116/116 117/117
f 113/113 112/112 116/116
f 112/112 118/118 116/116
f 112/112 114/114 118/118
f 114/114 119/119 118/118
f 114/114 115/115 119/119
f 115/115 120/120 119/119
f 121/121 122/122 123/123
f 122/122 124/124 125/125
f 122/122 125/125 123/123
f 123/123 125/125 126/126
f 124/124 127/127 128/128
f 124/124 128/128 125/125
f 125/125 128/128 129/129
f 125/125 129/129 126/126
f 126/126 129/129 130/130
f 127/127 131/131 132/132
f 127/127 132/132 128/128
f 128/128 132/132 133/133
f 128/128 133/133 129/129
f 129/129 133/133 134/134
f 129/129 134/134 130/130
f 130/130 134/134 135/135
f 136/136 137/137 138/138
f 138/138 139/139 140/140
f 138/138 137/137 139/139
f 137/137 141/141 139/139
f 140/140 142/142 143/143
f 140/140 139/139 142/142
f 139/139 144/144 142/142
f 139/139 141/141 144/144
f 141/141 145/145 144/144
f 143/143 146/146 147/147
f 143/143 142/142 146/146
f 142/142 148/148 146/146
f 142/142 144/144 148/148
f 144/144 149/149 148/148
f 144/144 145/145 149/149
f 145/145 150/150 149/149
f 151/151 152/152 153/153
f 152/152 154/154 155/155
f 152/152 155/155 153/153
f 153/153 155/155 156/156
f 154/154 157/157 158/158
f 154/154 158/158 155/155
f 155/155 158/158 159/159
f 155/155 159/159 156/156
f 156/156 159/159 160/160
f 157/157 161/161 162/162
f 157/157 162/162 158/158
f 158/158 162/162 163/163
f 158/158 163/163 159/159
f 159/159 163/163 164/164
f 159/159 164/164 160/160
f 160/160 164/164 165/165
f 166/166 167/167 168/168
f 168/168 169/169 170/170
f 168/168 167/167 169/169
f 167/167 171/171 169/169
f 170/170 172/172 173/173
f 170/170 169/169 172/172
f 169/169 174/174 172/172
f 169/169 171/171 174/174
f 171/171 175/175 174/174
f 173/173 176/176 177/177
f 173/173 172/172 176/176
f 172/172 178/178 176/176
f 172/172 174/174 178/178
f 174/174 179/179 178/178
f 174/174 175/175 179/179
f 175/175 180/180 179/179
f 181/181 182/182 183/183
f 182/182 184/184 185/185
f 182/182 185/185 183/183
f 183/183 185/185 186/186
f 184/184 187/187 188/188
f 184/184 188/188 185/185
f 185/185 188/188 189/189
f 185/185 189/189 186/186
f 186/186 189/189 190/190
f 187/187 191/191 192/192
f 187/187 192/192 188/188
f 188/188 192/192 193/193
f 188/188 193/193 189/189
f 189/189 193/193 194/194
f 189/189 194/194 190/190
f 190/190 194/194 195/195
f 196/196 197/197 198/198
f 198/198 199/199 200/200
f 198/198 197/197 199/199
f 197/197 201/201 199/199
f 200/200 202/202 203/203
f 200/200 199/199 202/202
f 199/199 204/204 202/202
f 199/199 201/201 204/204
f 201/201 205/205 204/204
f 203/203 206/206 207/207
f 203/203 202/202 206/206
f 202/202 208/208 206/206
f 202/202 204/204 208/208
f 204/204 209/209 208/208
f 204/204 205/205 209/209
f 205/205 210/210 209/209
f 211/211 212/212 213/213
f 212/212 214/214 215/215
f 212/212 215/215 213/213
f 213/213 215/215 216/216
f 214/214 217/217 218/218
f 214/214 218/218 215/215
f 215/215 218/218 219/219
f 215/215 219/219 216/216
f 216/216 219/219 220/220
f 217/217 221/221 222/222
f 217/217 222/222 218/218
f 218/218 222/222 223/223
f 218/218 223/223 219/219
f 219/219 223/223 224/224
f 219/219 224/224 220/220
f 220/220 224/224 225/225
f 226/226 227/227 228/228
f 228/228 229/229 230/230
f 228/228 227/227 229/229
f 227/227 231/231 229/229
f 230/230 232/232 233/233
f 230/230 229/229 232/232
f 229/229 234/234 232/232
f 229/229 231/231 234/234
f 231/231 235/235 234/234
f 233/233 236/236 237/237
f 233/233 232/232 236/236
f 232/232 238/238 236/236
f 232/232 234/234 238/238
f 234/234 239/239 238/238
f 234/234 235/235 239/239
f 235/235 240/240 239/239
f 241/241 242/242 243/243
f 242/242 244/244 245/245
f 242/242 245/245 243/243
f 243/243 245/245 246/246
f 244/244 247/247 248/248
f 244/244 248/248 245/245
f 245/245 248/248 249/249
f 245/245 249/249 246/246
f 246/246 249/249 250/250
f 247/247 251/251 252/252
f 247/247 252/252 248/248
f 248/248 252/252 253/253
f 248/248 253/253 249/249
f 249/249 253/253 254/254
f 249/249 254/254 250/250
f 250/250 254/254 255/255
f 256/256 257/257 258/258
f 258/258 259/259 260/260
f 258/258 257/257 259/259
f 257/257 261/261 259/259
f 260/260 262/262 263/263
f 260/260 259/259 262/262
f 259/259 264/264 262/262
f 259/259 261/261 264/264
f 261/261 265/265 264/264
f 263/263 266/266 267/267
f 263/263 262/262 266/266
f 262/262 268/268 266/266
f 262/262 264/264 268/268
f 264/264 269/269 268/268
f 264/264 265/265 269/269
f 265/265 270/270 269/269
f 271/271 272/272 273/273
f 274/274 271/271 273/273
f 275/275 274/274 273/273
f 276/276 275/275 273/273
f 277/277 276/276 273/273
f 278/278 277/277 273/273
f 279/279 278/278 273/273
f 280/280 279/279 273/273
f 281/281 280/280 273/273
f 282/282 281/281 273/273
f 283/283 282/282 273/273
f 284/284 283/283 273/273
f 285/285 284/284 273/273
f 286/286 285/285 273/273
f 287/287 286/286 273/273
f 288/288 287/287 273/273
f 289/289 288/288 273/273
f 290/290 289/289 273/273
f 291/291 290/290 273/273
f 272/272 291/291 273/273
f 292/292 293/293 294/294
f 293/293 295/295 294/294
f 295/295 296/296 294/294
f 296/296 297/297 294/294
f 297/297 298/298 294/294
f 298/298 299/299 294/294
f 299/299 300/300 294/294
f 300/300 301/301 294/294
f 301/301 302/302 294/294
f 302/302 303/303 294/294
f 303/303 304/304 294/294
f 304/304 305/305 294/294
f 305/305 306/306 294/294
f 306/306 307/307 294/294
f 307/307 308/308 294/294
f 308/308 309/309 294/294
f 309/309 310/310 294/294
f 310/310 311/311 294/294
f 311/311 312/312 294/294
f 312/312 292/292 294/294
f 313/313 314/314 315/315
f 316/316 313/313 315/315
f 317/317 316/316 315/315
f 318/318 317/317 315/315
f 319/319 318/318 315/315
f 320/320 319/319 315/315
f 321/321 320/320 315/315
f 322/322 321/321 315/315
f 323/323 322/322 315/315
f 324/324 323/323 315/315
f 325/325 324/324 315/315
f 326/326 325/325 315/315
f 327/327 326/326 315/315
f 328/328 327/327 315/315
f 329/329 328/328 315/315
f 330/330 329/329 315/315
f 331/331 330/330 315/315
f 332/332 331/331 315/315
f 333/333 332/332 315/315
f 314/314 333/333 315/315
f 334/334 335/335 336/336
f 335/335 337/337 336/336
f 337/337 338/338 336/336
f 338/338 339/339 336/336
f 339/339 340/340 336/336
f 340/340 341/341 336/336
f 341/341 342/342 336/336
f 342/342 343/343 336/336
f 343/343 344/344 336/336
f 344/344 345/345 336/336
f 345/345 346/346 336/336
f 346/346 347/347 336/336
f 347/347 348/348 336/336
f 348/348 349/349 336/336
f 349/349 350/350 336/336
f 350/350 351/351 336/336
f 351/351 352/352 336/336
f 352/352 353/353 336/336
f 353/353 354/354 336/336
f 354/354 334/334 336/336
f 355/355 356/356 357/357
f 355/355 357/357 358/358
f 359/359 360/360 361/361
f 359/359 361/361 362/362
f 356/356 363/363 364/364
f 356/356 364/364 357/357
f 365/365 359/359 362/362
f 365/365 362/362 366/366
f 363/363 367/367 368/368
f 363/363 368/368 364/364
f 369/369 365/365 366/366
f 369/369 366/366 370/370
f 367/367 371/371 372/372
f 367/367 372/372 368/368
f 373/373 374/374 375/375
f 373/373 375/375 376/376
f 374/374 377/377 378/378
f 374/374 378/378 375/375
f 377/377 379/379 380/380
f 377/377 380/380 378/378
f 379/379 381/381 382/382
f 379/379 382/382 380/380
f 383/383 369/369 370/370
f 383/383 370/370 384/384
f 385/385 386/386 387/387
f 385/385 387/387 388/388
f 389/389 390/390 391/391
f 389/389 391/391 392/392
f 386/386 393/393 394/394
f 386/386 394/394 387/387
f 395/395 389/389 392/392
f 395/395 392/392 396/396
f 393/393 397/397 398/398
f 393/393 398/398 394/394
f 399/399 395/395 396/396
f 399/399 396/396 400/400
f 397/397 401/401 402/402
f 397/397 402/402 398/398
f 403/403 404/404 405/405
f 403/403 405/405 406/406
f 404/404 407/407 408/408
f 404/404 408/408 405/405
f 407/407 409/409 410/410
f 407/407 410/410 408/408
f 409/409 411/411 412/412
f 409/409 412/412 410/410
f 413/413 399/399 400/400
f 413/413 400/400 414/414
f 415/415 416/416 417/417
f 415/415 417/417 418/418
f 419/419 420/420 421/421
f 419/419 421/421 422/422
f 416/416 423/423 424/424
f 416/416 424/424 417/417
f 425/425 419/419 422/422
f 425/425 422/422 426/426
f 423/423 427/427 428/428
f 423/423 428/428 424/424
f 429/429 425/425 426/426
f 429/429 426/426 430/430
f 427/427 431/431 432/432
f 427/427 432/432 428/428
f 433/433 434/434 435/435
f 433/433 435/435 436/436
f 434/434 437/437 438/438
f 434/434 438/438 435/435
f 437/437 439/439 440/440
f 437/437 440/440 438/438
f 439/439 441/441 442/442
f 439/439 442/442 440/440
f 443/443 429/429 430/430
f 443/443 430/430 444/444
f 445/445 446/446 447/447
f 445/445 447/447 448/448
f 449/449 450/450 451/451
f 449/449 451/451 452/452
f 446/446 453/453 454/454
f 446/446 454/454 447/447
f 455/455 449/449 452/452
f 455/455 452/452 456/456
f 453/453 457/457 458/458
f 453/453 458/458 454/454
f 459/459 455/455 456/456
f 459/459 456/456 460/460
f 457/457 461/461 462/462
f 457/457 462/462 458/458
f 463/463 464/464 465/465
f 463/463 465/465 466/466
f 464/464 467/467 468/468
f 464/464 468/468 465/465
f 467/467 469/469 470/470
f 467/467 470/470 468/468
f 469/469 471/471 472/472
f 469/469 472/472 470/470
f 473/473 459/459 460/460
f 473/473 460/460 474/474
f 475/475 476/476 477/477
f 475/475 477/477 478/478
f 479/479 480/480 481/481
f 479/479 481/481 482/482
f 476/476 483/483 484/484
f 476/476 484/484 477/477
f 485/485 479/479 482/482
f 485/485 482/482 486/486
f 483/483 487/487 488/488
f 483/483 488/488 484/484
f 489/489 485/485 486/486
f 489/489 486/486 490/490
f 487/487 491/491 492/492
f 487/487 492/492 488/488
f 493/493 494/494 495/495
f 493/493 495/495 496/496
f 494/494 497/497 498/498
f 494/494 498/498 495/495
f 497/497 499/499 500/500
f 497/497 500/500 498/498
f 499/499 501/501 502/502
f 499/499 502/502 500/500
f 503/503 489/489 490/490
f 503/503 490/490 504/504
f 505/505 506/506 507/507
f 505/505 507/507 508/508
f 509/509 510/510 511/511
f 509/509 511/511 512/512
f 506/506 513/513 514/514
f 506/506 514/514 507/507
f 515/515 509/509 512/512
f 515/515 512/512 516/516
f 513/513 517/517 518/518
f 513/513 518/518 514/514
f 519/519 515/515 516/516
f 519/519 516/516 520/520
f 517/517 521/521 522/522
f 517/517 522/522 518/518
f 523/523 524/524 525/525
f 523/523 525/525 526/526
f 524/524 527/527 528/528
f 524/524 528/528 525/525
f 527/527 529/529 530/530
f 527/527 530/530 528/528
f 529/529 531/531 532/532
f 529/529 532/532 530/530
f 533/533 519/519 520/520
f 533/533 520/520 534/534
f 535/535 536/536 537/537
f 535/535 537/537 538/538
f 539/539 540/540 541/541
f 539/539 541/541 542/542
f 536/536 543/543 544/544
f 536/536 544/544 537/537
f 545/545 539/539 542/542
f 545/545 542/542 546/546
f 543/543 547/547 548/548
f 543/543 548/548 544/544
f 549/549 545/545 546/546
f 549/549 546/546 550/550
f 547/547 551/551 552/552
f 547/547 552/552 548/548
f 553/553 554/554 555/555
f 553/553 555/555 556/556
f 554/554 557/557 558/558
f 554/554 558/558 555/555
f 557/557 559/559 560/560
f 557/557 560/560 558/558
f 559/559 561/561 562/562
f 559/559 562/562 560/560
f 563/563 549/549 550/550
f 563/563 550/550 564/564
f 565/565 566/566 567/567
f 565/565 567/567 568/568
f 569/569 570/570 571/571
f 569/569 571/571 572/572
f 566/566 573/573 574/574
f 566/566 574/574 567/567
f 575/575 569/569 572/572
f 575/575 572/572 576/576
f 573/573 577/577 578/578
f 573/573 578/578 574/574
f 579/579 575/575 576/576
f 579/579 576/576 580/580
f 577/577 581/581 582/582
f 577/577 582/582 578/578
f 583/583 584/584 585/585
f 583/583 585/585 586/586
f 584/584 587/587 588/588
f 584/584 588/588 585/585
f 587/587 589/589 590/590
f 587/587 590/590 588/588
f 589/589 591/591 592/592
f 589/589 592/592 590/590
f 593/593 579/579 580/580
f 593/593 580/580 594/594
f 595/595 596/596 597/597
f 595/595 597/597 598/598
f 599/599 600/600 601/601
f 599/599 601/601 602/602
f 596/596 603/603 604/604
f 596/596 604/604 597/597
f 605/605 599/599 602/602
f 605/605 602/602 606/606
f 603/603 607/607 608/608
f 603/603 608/608 604/604
f 609/609 605/605 606/606
f 609/609 606/606 610/610
f 607/607 611/611 612/612
f 607/607 612/612 608/608
f 613/613 614/614 615/615
f 613/613 615/615 616/616
f 614/614 617/617 618/618
f 614/614 618/618 615/615
f 617/617 619/619 620/620
f 617/617 620/620 618/618
f 619/619 621/621 622/622
f 619/619 622/622 620/620
f 623/623 609/609 610/610
f 623/623 610/610 624/624
f 625/625 626/626 627/627
f 625/625 627/627 628/628
f 629/629 630/630 631/631
f 629/629 631/631 632/632
f 633/633 634/634 635/635
f 633/633 635/635 636/636
f 637/637 638/638 639/639
f 637/637 639/639 640/640
f 641/641 642/642 643/643
f 641/641 643/643 644/644
f 645/645 646/646 647/647
f 645/645 647/647 648/648
f 649/649 650/650 638/638
f 649/649 638/638 637/637
f 651/651 652/652 642/642
f 651/651 642/642 641/641
f 653/653 654/654 655/655
f 653/653 655/655 656/656
f 657/657 658/658 650/650
f 657/657 650/650 649/649
f 659/659 660/660 652/652
f 659/659 652/652 651/651
f 661/661 662/662 663/663
f 661/661 663/663 664/664
f 637/637 640/640 665/665
f 637/637 665/665 666/666
f 630/630 629/629 667/667
f 630/630 667/667 668/668
f 643/643 642/642 669/669
f 643/643 669/669 670/670
f 636/636 635/635 671/671
f 636/636 671/671 672/672
f 673/673 674/674 675/675
f 673/673 675/675 676/676
f 677/677 678/678 679/679
f 677/677 679/679 680/680
f 681/681 682/682 683/683
f 681/681 683/683 684/684
f 632/632 631/631 685/685
f 632/632 685/685 686/686
f 634/634 633/633 687/687
f 634/634 687/687 688/688
f 689/689 690/690 691/691
f 689/689 691/691 692/692
f 693/693 694/694 695/695
f 693/693 695/695 696/696
f 697/697 698/698 699/699
f 697/697 699/699 700/700
f 701/701 702/702 703/703
f 701/701 703/703 704/704
f 705/705 706/706 707/707
f 705/705 707/707 708/708
f 709/709 710/710 711/711
f 709/709 711/711 712/712
f 700/700 699/699 713/713
f 700/700 713/713 714/714
f 706/706 705/705 715/715
f 706/706 715/715 716/716
f 690/690 689/689 717/717
f 690/690 717/717 718/718
f 710/710 709/709 719/719
f 710/710 719/719 720/720
f 721/721 722/722 723/723
f 721/721 723/723 724/724
f 716/716 715/715 725/725
f 716/716 725/725 726/726
f 727/727 728/728 729/729
f 727/727 729/729 730/730
f 720/720 719/719 731/731
f 720/720 731/731 732/732
f 733/733 734/734 735/735
f 733/733 735/735 736/736
f 726/726 725/725 737/737
f 726/726 737/737 738/738
f 739/739 740/740 741/741
f 739/739 741/741 742/742
f 732/732 731/731 743/743
f 732/732 743/743 744/744
f 745/745 746/746 747/747
f 745/745 747/747 748/748
f 738/738 737/737 749/749
f 738/738 749/749 750/750
f 751/751 752/752 753/753
f 751/751 753/753 754/754
f 744/744 743/743 755/755
f 744/744 755/755 756/756
f 757/757 758/758 759/759
f 757/757 759/759 760/760
f 758/758 761/761 762/762
f 758/758 762/762 759/759
f 761/761 763/763 764/764
f 761/761 764/764 762/762
f 765/765 766/766 767/767
f 765/765 767/767 768/768
f 766/766 769/769 770/770
f 766/766 770/770 767/767
f 769/769 771/771 772/772
f 769/769 772/772 770/770
f 773/773 774/774 775/775
f 773/773 775/775 776/776
f 774/774 777/777 778/778
f 774/774 778/778 775/775
f 777/777 779/779 780/780
f 777/777 780/780 778/778
f 779/779 781/781 782/782
f 779/779 782/782 780/780
f 781/781 783/783 784/784
f 781/781 784/784 782/782
f 783/783 785/785 786/786
f 783/783 786/786 784/784
f 785/785 787/787 788/788
f 785/785 788/788 786/786
f 789/789 790/790 791/791
f 789/789 791/791 792/792
f 790/790 793/793 794/794
f 790/790 794/794 791/791
f 793/793 795/795 796/796
f 793/793 796/796 794/794
f 797/797 798/798 799/799
f 797/797 799/799 800/800
f 798/798 801/801 802/802
f 798/798 802/802 799/799
f 801/801 803/803 804/804
f 801/801 804/804 802/802
f 803/803 757/757 760/760
f 803/803 760/760 804/804
f 805/805 806/806 807/807
f 805/805 807/807 808/808
f 806/806 809/809 810/810
f 806/806 810/810 807/807
f 811/811 812/812 813/813
f 811/811 813/813 814/814
f 812/812 815/815 816/816
f 812/812 816/816 813/813
f 815/815 817/817 818/818
f 815/815 818/818 816/816
f 817/817 819/819 820/820
f 817/817 820/820 818/818
f 821/821 822/822 823/823
f 821/821 823/823 824/824
f 822/822 825/825 826/826
f 822/822 826/826 823/823
f 825/825 827/827 828/828
f 825/825 828/828 826/826
f 827/827 829/829 830/830
f 827/827 830/830 828/828
f 829/829 831/831 832/832
f 829/829 832/832 830/830
f 831/831 833/833 834/834
f 831/831 834/834 832/832
f 835/835 836/836 837/837
f 835/835 837/837 838/838
f 836/836 839/839 840/840
f 836/836 840/840 837/837
f 839/839 841/841 842/842
f 839/839 842/842 840/840
f 841/841 843/843 844/844
f 841/841 844/844 842/842
f 845/845 846/846 847/847
f 845/845 847/847 848/848
f 846/846 849/849 850/850
f 846/846 850/850 847/847
f 849/849 851/851 852/852
f 849/849 852/852 850/850
f 851/851 805/805 808/808
f 851/851 808/808 852/852
f 853/853 854/854 855/855
f 853/853 855/855 856/856
f 857/857 858/858 859/859
f 857/857 859/859 860/860
f 861/861 862/862 863/863
f 861/861 863/863 864/864
f 865/865 866/866 867/867
f 865/865 867/867 868/868
f 869/869 870/870 871/871
f 869/869 871/871 872/872
f 873/873 874/874 875/875
f 873/873 875/875 876/876
f 877/877 878/878 879/879
f 877/877 879/879 880/880
f 881/881 870/870 869/869
f 881/881 869/869 882/882
f 883/883 884/884 885/885
f 883/883 885/885 886/886
f 876/876 875/875 887/887
f 876/876 887/887 888/888
f 889/889 890/890 865/865
f 889/889 865/865 891/891
f 890/890 892/892 866/866
f 890/890 866/866 865/865
f 893/893 894/894 862/862
f 893/893 862/862 861/861
f 858/858 895/895 896/896
f 858/858 896/896 859/859
f 896/896 897/897 898/898
f 896/896 898/898 859/859
f 899/899 900/900 854/854
f 899/899 854/854 853/853
f 901/901 902/902 903/903
f 901/901 903/903 904/904
f 905/905 892/892 890/890
f 905/905 890/890 906/906
f 907/907 894/894 893/893
f 907/907 893/893 908/908
f 909/909 896/896 895/895
f 909/909 895/895 910/910
f 911/911 912/912 913/913
f 911/911 913/913 914/914
f 915/915 900/900 899/899
f 915/915 899/899 916/916
f 917/917 918/918 919/919
f 917/917 919/919 920/920
f 866/866 892/892 921/921
f 866/866 921/921 922/922
f 923/923 924/924 925/925
f 923/923 925/925 926/926
f 872/872 871/871 927/927
f 872/872 927/927 928/928
f 929/929 930/930 931/931
f 929/929 931/931 932/932
f 933/933 895/895 858/858
f 933/933 858/858 934/934
f 935/935 936/936 937/937
f 935/935 937/937 938/938
f 939/939 874/874 873/873
f 939/939 873/873 940/940
f 941/941 942/942 943/943
f 941/941 943/943 944/944
f 945/945 946/946 947/947
f 945/945 947/947 948/948
f 870/870 881/881 949/949
f 870/870 949/949 950/950
f 855/855 854/854 951/951
f 855/855 951/951 952/952
f 953/953 954/954 955/955
f 953/953 955/955 956/956
f 957/957 958/958 959/959
f 957/957 959/959 960/960
f 900/900 915/915 961/961
f 900/900 961/961 962/962
f 887/887 875/875 963/963
f 887/887 963/963 964/964
f 908/908 893/893 965/965
f 908/908 965/965 966/966
f 967/967 968/968 969/969
f 967/967 969/969 970/970
f 971/971 972/972 973/973
f 971/971 973/973 974/974
f 874/874 939/939 975/975
f 874/874 975/975 976/976
f 977/977 978/978 979/979
f 977/977 979/979 980/980
f 981/981 982/982 983/983
f 981/981 983/983 984/984
f 861/861 864/864 985/985
f 861/861 985/985 986/986
f 927/927 871/871 987/987
f 927/927 987/987 988/988
f 989/989 990/990 991/991
f 989/989 991/991 992/992
f 853/853 856/856 993/993
f 853/853 993/993 994/994
f 882/882 869/869 995/995
f 882/882 995/995 996/996
f 997/997 998/998 999/999
f 997/997 999/999 1000/1000
f 916/916 899/899 1001/1001
f 916/916 1001/1001 1002/1002
f 1003/1003 1004/1004 1005/1005
f 1003/1003 1005/1005 1006/1006
f 1007/1007 1008/1008 1009/1009
f 1007/1007 1009/1009 1010/1010
f 876/876 888/888 1011/1011
f 876/876 1011/1011 1012/1012
f 1013/1013 1014/1014 1015/1015
f 1013/1013 1015/1015 1016/1016
f 1017/1017 1018/1018 1019/1019
f 1017/1017 1019/1019 1020/1020
f 872/872 928/928 1021/1021
f 872/872 1021/1021 1022/1022
f 863/863 862/862 1023/1023
f 863/863 1023/1023 1024/1024
f 1025/1025 1026/1026 1027/1027
f 1025/1025 1027/1027 1028/1028
f 1029/1029 1030/1030 1031/1031
f 1029/1029 1031/1031 1032/1032
f 894/894 907/907 1033/1033
f 894/894 1033/1033 1034/1034
f 940/940 873/873 1035/1035
f 940/940 1035/1035 1036/1036
f 1037/1037 1038/1038 1039/1039
f 1037/1037 1039/1039 1040/1040
f 1041/1041 1042/1042 1043/1043
f 1041/1041 1043/1043 1044/1044
f 1045/1045 1046/1046 1047/1047
f 1045/1045 1047/1047 1048/1048
f 1049/1049 1050/1050 1051/1051
f 1049/1049 1051/1051 1052/1052
f 1053/1053 1054/1054 1055/1055
f 1053/1053 1055/1055 1056/1056
f 1057/1057 1058/1058 1059/1059
f 1057/1057 1059/1059 1060/1060
f 1061/1061 1051/1051 1050/1050
f 1061/1061 1050/1050 1062/1062
f 1063/1063 1046/1046 1045/1045
f 1063/1063 1045/1045 1064/1064
f 1065/1065 1066/1066 1067/1067
f 1065/1065 1067/1067 1068/1068
f 1069/1069 1038/1038 1037/1037
f 1069/1069 1037/1037 1070/1070
f 1071/1071 1072/1072 1073/1073
f 1071/1071 1073/1073 1074/1074
f 1044/1044 1043/1043 1075/1075
f 1044/1044 1075/1075 1076/1076
f 1077/1077 1054/1054 1053/1053
f 1077/1077 1053/1053 1078/1078
f 1079/1079 1050/1050 1049/1049
f 1079/1079 1049/1049 1080/1080
f 1062/1062 1050/1050 1079/1079
f 1062/1062 1079/1079 1081/1081
f 1060/1060 1059/1059 1082/1082
f 1060/1060 1082/1082 1083/1083
f 1084/1084 1085/1085 1051/1051
f 1084/1084 1051/1051 1061/1061
f 1052/1052 1051/1051 1085/1085
f 1052/1052 1085/1085 1086/1086
f 1056/1056 1055/1055 1087/1087
f 1056/1056 1087/1087 1088/1088
f 1089/1089 1042/1042 1041/1041
f 1089/1089 1041/1041 1090/1090
f 1091/1091 1092/1092 1093/1093
f 1091/1091 1093/1093 1094/1094
f 1095/1095 1058/1058 1057/1057
f 1095/1095 1057/1057 1096/1096
f 1097/1097 1098/1098 1099/1099
f 1097/1097 1099/1099 1100/1100
f 1101/1101 1102/1102 1103/1103
f 1101/1101 1103/1103 1104/1104
f 1105/1105 1106/1106 1107/1107
f 1105/1105 1107/1107 1108/1108
f 1109/1109 1110/1110 1111/1111
f 1109/1109 1111/1111 1112/1112
f 1070/1070 1037/1037 1113/1113
f 1070/1070 1113/1113 1114/1114
f 1115/1115 1116/1116 1117/1117
f 1115/1115 1117/1117 1118/1118
f 1119/1119 1120/1120 1121/1121
f 1119/1119 1121/1121 1122/1122
f 1060/1060 1083/1083 1123/1123
f 1060/1060 1123/1123 1124/1124
f 1125/1125 1126/1126 1127/1127
f 1125/1125 1127/1127 1128/1128
f 1129/1129 1130/1130 1131/1131
f 1129/1129 1131/1131 1132/1132
f 1046/1046 1063/1063 1133/1133
f 1046/1046 1133/1133 1134/1134
f 1096/1096 1057/1057 1135/1135
f 1096/1096 1135/1135 1136/1136
f 1137/1137 1138/1138 1139/1139
f 1137/1137 1139/1139 1140/1140
f 1119/1119 1122/1122 1141/1141
f 1119/1119 1141/1141 1142/1142
f 1073/1073 1072/1072 1143/1143
f 1073/1073 1143/1143 1144/1144
f 1113/1113 1037/1037 1145/1145
f 1113/1113 1145/1145 1146/1146
f 1147/1147 1148/1148 1149/1149
f 1147/1147 1149/1149 1150/1150
f 1046/1046 1134/1134 1151/1151
f 1046/1046 1151/1151 1152/1152
f 1093/1093 1092/1092 1153/1153
f 1093/1093 1153/1153 1154/1154
f 1127/1127 1126/1126 1155/1155
f 1127/1127 1155/1155 1156/1156
f 1157/1157 1158/1158 1098/1098
f 1157/1157 1098/1098 1097/1097
f 1159/1159 1160/1160 1161/1161
f 1159/1159 1161/1161 1162/1162
f 1163/1163 1164/1164 1106/1106
f 1163/1163 1106/1106 1105/1105
f 1057/1057 1060/1060 1110/1110
f 1057/1057 1110/1110 1109/1109
f 1165/1165 1166/1166 1167/1167
f 1165/1165 1167/1167 1168/1168
f 1105/1105 1108/1108 1169/1169
f 1105/1105 1169/1169 1170/1170
f 1067/1067 1066/1066 1171/1171
f 1067/1067 1171/1171 1172/1172
f 1099/1099 1098/1098 1173/1173
f 1099/1099 1173/1173 1174/1174
f 1183/1183 658/658 1186/1186
f 658/658 1183/1183 650/650
f 650/650 1183/1183 1184/1184
f 650/650 1184/1184 638/638
f 638/638 1184/1184 1185/1185
f 638/638 1185/1185 639/639
f 651/651 1188/1188 659/659
f 1188/1188 651/651 1187/1187
f 1187/1187 651/651 641/641
f 1187/1187 641/641 1190/1190
f 1190/1190 641/641 644/644
f 1190/1190 644/644 1189/1189

