ply
format ascii 1.0
element vertex 254
property float x
property float y
property float z
property uint8 red
property uint8 green
property uint8 blue
end_header
-4.362039 43.089531 -0.916467 208 184 8
-4.362039 43.089531 -0.916467 208 184 8
-4.622405 42.946533 -1.137213 241 232 13
-4.395107 43.065849 -1.026222 240 228 13
-4.395107 43.065849 -1.026222 240 228 13
-4.912963 42.763737 -1.059501 218 204 10
-5.261264 42.541214 -0.969276 231 223 11
-3.134167 43.992496 -0.755261 209 175 8
-3.134167 43.992496 -0.755261 209 175 8
-3.255937 43.897446 -0.663933 244 226 14
-3.255937 43.897446 -0.663933 244 226 14
-3.345327 43.811192 -0.664500 211 185 8
-3.485262 43.681736 -0.771046 245 227 13
-3.561733 43.652740 -0.776059 205 179 8
-3.476768 43.714821 -0.665360 213 191 9
-3.845441 43.423275 -0.680222 223 204 11
-4.424875 43.073452 -0.826265 238 229 13
-3.120580 44.014874 -0.473604 207 182 8
-3.573684 43.644299 -0.580412 209 183 8
-3.460089 43.730568 -0.477247 209 181 8
-4.350295 43.121635 -0.504149 211 188 9
-4.350295 43.121635 -0.504149 211 188 9
-4.250800 43.217308 -0.418139 245 232 14
-4.250800 43.217308 -0.418139 245 232 14
-4.487351 43.015026 -0.519064 241 228 14
-3.198203 43.961441 -0.373297 210 189 8
-3.294931 43.891464 -0.373594 234 214 12
-3.403368 43.804020 -0.189655 210 184 9
-3.403368 43.804020 -0.189655 210 184 9
-3.825626 43.495689 -0.198692 238 223 13
-3.959183 43.362408 -0.402832 202 171 7
-4.062001 43.319298 -0.292494 207 182 8
-4.062001 43.319298 -0.292494 207 182 8
-4.242585 43.214626 -0.305262 209 185 8
-4.977038 42.787922 -0.230327 216 193 10
-5.177579 42.686138 -0.334163 212 190 9
-5.177579 42.686138 -0.334163 212 190 9
-3.093934 44.077354 -0.007280 206 172 8
-3.483113 43.722614 -0.097986 212 189 9
-3.678212 43.591305 -0.105132 236 220 13
-3.678212 43.591305 -0.105132 236 220 13
-3.672101 43.613644 -0.003073 205 172 8
-4.010062 43.369652 -0.104395 205 176 8
-4.211903 43.253521 -0.106214 231 215 13
-4.700855 42.942673 -0.015258 216 189 10
-3.108549 44.060005 0.186346 205 174 8
-3.434399 43.775482 0.086976 210 180 9
-4.117080 43.319328 0.195652 208 188 9
-4.358488 43.169987 0.093510 214 190 10
-4.927038 42.867920 0.297448 216 183 10
-4.927038 42.867920 0.297448 216 183 10
-3.503633 43.752472 0.379914 208 170 9
-3.503633 43.752472 0.379914 208 170 9
-3.972009 43.404114 0.395495 203 182 8
-3.929527 43.458008 0.482743 235 220 13
-3.929527 43.458008 0.482743 235 220 13
-4.490629 43.102097 0.500244 216 197 10
-4.696217 42.993790 0.405406 212 184 9
-4.891266 42.877304 0.506185 214 182 10
-3.093700 44.119587 0.740588 233 211 13
-3.093700 44.119587 0.740588 233 211 13
-3.568600 43.729916 0.664604 241 218 13
-3.465281 43.797134 0.663268 207 167 8
-3.490721 43.792179 0.761243 240 212 14
-3.490721 43.792179 0.761243 240 212 14
-3.578073 43.748844 0.766334 202 164 8
-3.578073 43.748844 0.766334 202 164 8
-3.712941 43.602131 0.574008 236 216 13
-4.527534 43.122295 1.703390 241 227 14
-4.819093 42.955833 1.728406 238 220 14
-5.101506 42.834393 1.645893 215 191 10
-3.712815 43.715633 1.719254 209 183 9
-3.780478 43.671715 1.909662 202 169 8
-4.112150 43.417820 1.855088 204 176 8
-4.568276 43.134945 1.809905 216 187 11
-4.802947 43.043175 1.915795 244 231 15
-4.802947 43.043175 1.915795 244 231 15
-4.810742 43.033916 2.017203 220 196 12
-5.377745 42.697105 2.056029 233 217 12
-3.781990 43.687077 2.086306 210 185 9
-4.483046 43.218281 2.182560 217 198 11
-4.712218 43.085896 2.107509 217 185 11
-4.712218 43.085896 2.107509 217 185 11
-5.257927 42.799706 2.153742 235 219 13
-4.404045 43.317627 2.694958 211 190 10
-4.341828 43.374741 2.787177 199 177 8
-4.227411 43.430672 2.681914 210 192 9
-4.476100 43.273285 2.541524 215 191 10
-4.476100 43.273285 2.541524 215 191 10
-4.005414 43.564991 2.582864 236 223 13
-4.388286 43.301796 2.263239 217 191 11
-4.388286 43.301796 2.263239 217 191 11
-3.998921 43.571510 2.308099 236 224 13
-3.656413 43.815472 2.339756 213 188 10
-3.656413 43.815472 2.339756 213 188 10
-3.639657 43.814857 2.161968 218 194 11
-5.190661 42.844982 2.238105 217 195 11
-4.527534 43.122295 1.703390 241 227 14
-4.498174 43.166882 1.597685 215 186 10
-4.298116 43.314579 1.681542 211 187 9
-4.184141 43.357555 1.671763 231 213 13
-4.184141 43.357555 1.671763 231 213 13
-4.152883 43.382900 1.569203 206 178 9
-3.447587 43.914951 1.683780 210 189 9
-5.387706 42.694912 1.560518 210 188 9
-5.236306 42.724007 1.555394 239 225 13
-5.236306 42.724007 1.555394 239 225 13
-4.351832 43.264988 1.509948 216 198 10
-4.256793 43.311039 1.289015 213 194 10
-4.256793 43.311039 1.289015 213 194 10
-3.246635 44.050236 1.296991 211 183 9
-4.428201 43.181599 1.293902 244 231 15
-3.190358 44.059494 1.021829 211 183 9
-3.190358 44.059494 1.021829 211 183 9
-5.248601 42.713657 0.928128 210 182 9
-5.079834 42.816540 1.027655 217 192 10
-5.079834 42.816540 1.027655 217 192 10
-4.591018 43.058884 0.831993 215 197 10
-4.207826 43.317135 0.994568 242 229 14
-4.194091 43.310871 0.892565 210 193 9
-3.264313 44.001785 0.933523 210 179 9
-5.144151 42.764046 0.719559 217 182 10
-4.428159 43.143127 0.698289 211 183 9
-4.304914 43.246342 0.791309 211 192 9
-3.984995 43.407719 0.582937 226 213 12
-3.670121 43.637356 0.666052 205 176 8
-3.712941 43.602131 0.574008 236 216 13
-4.713818 42.932255 -0.324586 220 197 11
-4.485511 43.079487 -0.215015 214 193 9
-4.485511 43.079487 -0.215015 214 193 9
-4.575857 43.006859 -0.312210 244 232 14
-3.107217 44.045113 -0.194946 209 180 8
-3.107217 44.045113 -0.194946 209 180 8
-5.168685 42.660515 -0.550570 213 189 9
-4.845664 42.849152 -0.636966 217 193 10
-4.845664 42.849152 -0.636966 217 193 10
-3.944580 43.383266 -0.607155 200 178 7
-3.825135 43.477917 -0.490846 202 179 8
-3.196654 43.961304 -0.571487 211 181 8
-4.419899 43.068192 -0.709523 217 200 10
-4.419899 43.068192 -0.709523 217 200 10
-4.544326 43.031784 -0.832435 214 197 9
-3.882092 43.418541 -0.790310 197 176 7
-3.882092 43.418541 -0.790310 197 176 7
-4.271461 43.154499 -1.022078 209 195 8
-4.133666 43.242241 -0.987295 224 209 11
-3.742308 43.464981 -0.976673 202 176 7
-3.675582 43.541325 -0.964702 204 179 8
-3.810792 43.441120 -1.076155 200 175 7
-3.433269 43.718056 -1.043130 210 182 8
-3.433269 43.718056 -1.043130 210 182 8
-3.092134 44.024921 -1.023983 207 176 8
-4.866454 42.776741 -1.263548 216 192 10
-4.365255 43.081612 -1.209310 209 191 8
-4.365255 43.081612 -1.209310 209 191 8
-4.224785 43.162090 -1.304639 201 178 7
-3.969222 43.319324 -1.382282 194 173 7
-3.407144 43.776749 -0.396159 209 183 8
-3.692046 43.526035 -1.271992 200 176 7
-3.714087 43.580933 0.089605 213 183 9
-3.714087 43.580933 0.089605 213 183 9
-5.349337 42.680798 2.068177 231 214 12
-4.274226 43.268742 1.092882 229 218 12
-5.171485 42.774067 1.435120 219 199 11
-3.941927 43.543880 1.660794 202 179 8
-3.939752 43.383251 -1.155622 199 177 7
-4.995456 42.982834 2.601714 242 224 15
-4.995456 42.982834 2.601714 242 224 15
-4.735738 43.201851 1.256084 224 198 12
-4.783164 42.945328 -0.748261 230 222 13
-4.624231 42.976974 -0.515108 218 199 10
-4.178995 43.426670 2.348836 240 228 13
-4.178995 43.426670 2.348836 240 228 13
-4.323631 43.304798 2.367496 217 199 11
-4.935294 42.949039 2.409102 223 190 13
-3.455352 43.722099 -2.508482 232 221 11
-3.455352 43.722099 -2.508482 232 221 11
-3.547665 43.630779 -2.338823 205 177 7
-3.547665 43.630779 -2.338823 205 177 7
-3.351876 43.794960 -1.783865 208 182 8
-3.585648 43.597427 -1.981360 233 216 12
-4.122927 43.201839 -1.859402 202 179 7
-3.545924 43.633362 -1.620999 205 178 7
-3.545924 43.633362 -1.620999 205 178 7
-4.399732 43.008991 -1.812732 230 221 12
-3.969222 43.319324 -1.382282 194 173 7
-3.321475 43.870064 -0.005214 207 175 8
-4.445362 43.113071 -0.009168 211 179 9
-4.445362 43.113071 -0.009168 211 179 9
-3.348858 43.864925 0.187218 205 167 8
-3.689850 43.594925 0.186123 205 176 8
-3.675974 43.611652 0.384704 208 181 9
-4.747804 42.985497 0.503138 241 224 14
-4.747804 42.985497 0.503138 241 224 14
-4.440588 43.196419 0.591308 245 232 14
-4.700395 43.022076 0.609886 218 192 11
-3.155618 44.068096 0.824792 211 180 9
-3.155618 44.068096 0.824792 211 180 9
-3.492167 43.794807 0.926017 210 177 9
-3.492167 43.794807 0.926017 210 177 9
-4.863970 42.940903 1.020698 216 182 10
-3.374531 43.903431 1.121952 211 180 9
-4.369581 43.209145 1.195634 214 196 10
-4.369581 43.209145 1.195634 214 196 10
-3.366606 43.956989 1.424369 216 187 10
-3.633660 43.757256 1.431812 204 173 8
-4.426169 43.185089 1.402568 214 190 10
-5.176313 42.778309 1.446458 218 198 11
-5.176313 42.778309 1.446458 218 198 11
-5.126118 42.831093 1.817303 237 219 14
-5.126118 42.831093 1.817303 237 219 14
-3.475208 43.920643 1.868372 209 179 9
-3.855173 43.606987 1.735562 202 177 8
-4.182553 43.378395 1.770524 206 175 8
-4.429564 43.243759 1.981853 215 189 10
-4.210940 43.386425 2.143415 212 187 10
-4.509502 43.216896 2.356500 241 229 14
-4.509502 43.216896 2.356500 241 229 14
-4.521842 43.199574 2.461067 219 192 12
-4.521842 43.199574 2.461067 219 192 12
-3.976308 43.594322 2.473299 212 187 10
-3.976308 43.594322 2.473299 212 187 10
-4.190222 43.438110 2.506590 208 186 9
-3.518164 43.667595 -2.574615 207 194 7
-3.421230 43.757690 -2.404654 206 181 7
-3.554487 43.638805 -2.504456 208 192 7
-3.589408 43.602589 -2.436851 240 223 13
-3.589408 43.602589 -2.436851 240 223 13
-3.312327 43.849888 -2.295612 207 185 7
-3.352420 43.816849 -2.214900 211 190 8
-3.458077 43.710251 -2.236087 207 188 7
-3.458077 43.710251 -2.236087 207 188 7
-3.861457 43.376656 -2.303890 200 178 7
-3.844734 43.377377 -2.119529 199 177 7
-3.488175 43.674160 -1.892902 208 175 8
-3.488175 43.674160 -1.892902 208 175 8
-3.797664 43.422146 -1.925929 194 157 6
-4.134457 43.175091 -1.972288 226 213 10
-3.356225 43.805935 -1.599295 206 173 7
-3.356225 43.805935 -1.599295 206 173 7
-3.664829 43.526962 -1.727232 202 174 7
-3.821858 43.420925 -1.752626 204 169 8
-3.155487 43.960941 -1.297585 210 183 8
-3.420850 43.749508 -1.507538 206 184 7
-3.420850 43.749508 -1.507538 206 184 7
-3.324259 43.824665 -1.411527 208 180 8
-3.644412 43.543751 -1.532821 203 171 7
-3.526419 43.647461 -1.430070 208 186 8
-3.537998 43.646694 -1.325199 232 207 12
-4.239828 43.168533 -1.412041 237 222 13
-2.985258 44.150726 -0.920537 200 167 7
-3.390586 43.753963 -0.977396 213 187 9
-3.305194 43.852985 -0.853112 207 174 8
-3.613068 43.590504 -1.069710 207 189 8
